%TF.GenerationSoftware,KiCad,Pcbnew,(6.0.4-0)*%
%TF.CreationDate,2022-05-14T15:15:58+02:00*%
%TF.ProjectId,sweepv2.1,73776565-7076-4322-9e31-2e6b69636164,rev?*%
%TF.SameCoordinates,Original*%
%TF.FileFunction,Soldermask,Bot*%
%TF.FilePolarity,Negative*%
%FSLAX46Y46*%
G04 Gerber Fmt 4.6, Leading zero omitted, Abs format (unit mm)*
G04 Created by KiCad (PCBNEW (6.0.4-0)) date 2022-05-14 15:15:58*
%MOMM*%
%LPD*%
G01*
G04 APERTURE LIST*
%ADD10C,0.990600*%
%ADD11C,3.429000*%
%ADD12C,2.032000*%
%ADD13C,1.701800*%
%ADD14C,0.500000*%
%ADD15C,1.524000*%
%ADD16O,2.000000X1.600000*%
%ADD17C,0.800000*%
%ADD18R,0.900000X0.900000*%
%ADD19R,0.900000X1.250000*%
%ADD20C,1.000000*%
%ADD21C,4.400000*%
%ADD22C,1.397000*%
G04 APERTURE END LIST*
D10*
%TO.C,SW10*%
X170636000Y-43298000D03*
D11*
X175856000Y-47498000D03*
D12*
X170856000Y-51298000D03*
X175856000Y-53398000D03*
D10*
X181076000Y-43298000D03*
D13*
X181356000Y-47498000D03*
X170356000Y-47498000D03*
%TD*%
D14*
%TO.C,mouse-bite-2mm-slot*%
X131318000Y-51308000D03*
X129286000Y-51308000D03*
X131318000Y-53340000D03*
X129286000Y-53340000D03*
X131318000Y-49276000D03*
X129286000Y-49276000D03*
X131318000Y-50292000D03*
X131318000Y-52324000D03*
X129286000Y-52324000D03*
X129286000Y-50292000D03*
%TD*%
%TO.C,mouse-bite-2mm-slot*%
X131318000Y-75184000D03*
X129286000Y-75184000D03*
X131318000Y-77216000D03*
X129286000Y-77216000D03*
X131318000Y-73152000D03*
X129286000Y-73152000D03*
X131318000Y-74168000D03*
X131318000Y-76200000D03*
X129286000Y-76200000D03*
X129286000Y-74168000D03*
%TD*%
D15*
%TO.C,U1*%
X237789400Y-53086000D03*
X237789400Y-55626000D03*
X237789400Y-58166000D03*
X237789400Y-60706000D03*
X237789400Y-63246000D03*
X237789400Y-65786000D03*
X237789400Y-68326000D03*
X237789400Y-70866000D03*
X237789400Y-73406000D03*
X237789400Y-75946000D03*
X237789400Y-78486000D03*
X237789400Y-81026000D03*
X222569400Y-81026000D03*
X222569400Y-78486000D03*
X222569400Y-75946000D03*
X222569400Y-73406000D03*
X222569400Y-70866000D03*
X222569400Y-68326000D03*
X222569400Y-65786000D03*
X222569400Y-63246000D03*
X222569400Y-60706000D03*
X222569400Y-58166000D03*
X222569400Y-55626000D03*
X222569400Y-53086000D03*
%TD*%
%TO.C,U2*%
X37937400Y-53086000D03*
X37937400Y-55626000D03*
X37937400Y-58166000D03*
X37937400Y-60706000D03*
X37937400Y-63246000D03*
X37937400Y-65786000D03*
X37937400Y-68326000D03*
X37937400Y-70866000D03*
X37937400Y-73406000D03*
X37937400Y-75946000D03*
X37937400Y-78486000D03*
X37937400Y-81026000D03*
X22717400Y-81026000D03*
X22717400Y-78486000D03*
X22717400Y-75946000D03*
X22717400Y-73406000D03*
X22717400Y-70866000D03*
X22717400Y-68326000D03*
X22717400Y-65786000D03*
X22717400Y-63246000D03*
X22717400Y-60706000D03*
X22717400Y-58166000D03*
X22717400Y-55626000D03*
X22717400Y-53086000D03*
%TD*%
D16*
%TO.C,J1*%
X30076000Y-83752000D03*
D17*
X25476000Y-86052000D03*
X32476000Y-86052000D03*
D16*
X27076000Y-83752000D03*
X34076000Y-83752000D03*
X35176000Y-88352000D03*
%TD*%
%TO.C,J2*%
X230274000Y-88352000D03*
D17*
X234874000Y-86052000D03*
X227874000Y-86052000D03*
D16*
X233274000Y-88352000D03*
X226274000Y-88352000D03*
X225174000Y-83752000D03*
%TD*%
D18*
%TO.C,SW_POWERR1*%
X233824000Y-50716000D03*
X233824000Y-52916000D03*
X226424000Y-52916000D03*
X226424000Y-50716000D03*
D19*
X227874000Y-53891000D03*
X232374000Y-53891000D03*
X230874000Y-53891000D03*
D20*
X231624000Y-51816000D03*
X228624000Y-51816000D03*
%TD*%
D18*
%TO.C,SW_POWER1*%
X34180000Y-50716000D03*
X34180000Y-52916000D03*
X26780000Y-52916000D03*
X26780000Y-50716000D03*
D19*
X28230000Y-53891000D03*
X32730000Y-53891000D03*
X31230000Y-53891000D03*
D20*
X31980000Y-51816000D03*
X28980000Y-51816000D03*
%TD*%
D10*
%TO.C,SW2*%
X134636000Y-45182000D03*
D11*
X139856000Y-49382000D03*
D12*
X134856000Y-53182000D03*
X139856000Y-55282000D03*
D10*
X145076000Y-45182000D03*
D13*
X145356000Y-49382000D03*
X134356000Y-49382000D03*
%TD*%
D10*
%TO.C,SW3*%
X152636000Y-33182000D03*
D11*
X157856000Y-37382000D03*
D12*
X152856000Y-41182000D03*
X157856000Y-43282000D03*
D10*
X163076000Y-33182000D03*
D13*
X163356000Y-37382000D03*
X152356000Y-37382000D03*
%TD*%
D10*
%TO.C,SW4*%
X170636000Y-26182000D03*
D11*
X175856000Y-30382000D03*
D12*
X170856000Y-34182000D03*
X175856000Y-36282000D03*
D10*
X181076000Y-26182000D03*
D13*
X181356000Y-30382000D03*
X170356000Y-30382000D03*
%TD*%
D10*
%TO.C,SW5*%
X188636000Y-31682000D03*
D11*
X193856000Y-35882000D03*
D12*
X188856000Y-39682000D03*
X193856000Y-41782000D03*
D10*
X199076000Y-31682000D03*
D13*
X199356000Y-35882000D03*
X188356000Y-35882000D03*
%TD*%
D10*
%TO.C,SW6*%
X206636000Y-34182000D03*
D11*
X211856000Y-38382000D03*
D12*
X206856000Y-42182000D03*
X211856000Y-44282000D03*
D10*
X217076000Y-34182000D03*
D13*
X217356000Y-38382000D03*
X206356000Y-38382000D03*
%TD*%
D10*
%TO.C,SW8*%
X134636000Y-62182000D03*
D11*
X139856000Y-66382000D03*
D12*
X134856000Y-70182000D03*
X139856000Y-72282000D03*
D10*
X145076000Y-62182000D03*
D13*
X145356000Y-66382000D03*
X134356000Y-66382000D03*
%TD*%
D10*
%TO.C,SW9*%
X152636000Y-50156000D03*
D11*
X157856000Y-54356000D03*
D12*
X152856000Y-58156000D03*
X157856000Y-60256000D03*
D10*
X163076000Y-50156000D03*
D13*
X163356000Y-54356000D03*
X152356000Y-54356000D03*
%TD*%
D10*
%TO.C,SW11*%
X188636000Y-48632000D03*
D11*
X193856000Y-52832000D03*
D12*
X188856000Y-56632000D03*
X193856000Y-58732000D03*
D10*
X199076000Y-48632000D03*
D13*
X199356000Y-52832000D03*
X188356000Y-52832000D03*
%TD*%
D10*
%TO.C,SW12*%
X206616000Y-51172000D03*
D11*
X211836000Y-55372000D03*
D12*
X206836000Y-59172000D03*
X211836000Y-61272000D03*
D10*
X217056000Y-51172000D03*
D13*
X217336000Y-55372000D03*
X206336000Y-55372000D03*
%TD*%
D10*
%TO.C,SW14*%
X134636000Y-79182000D03*
D11*
X139856000Y-83382000D03*
D12*
X134856000Y-87182000D03*
X139856000Y-89282000D03*
D10*
X145076000Y-79182000D03*
D13*
X145356000Y-83382000D03*
X134356000Y-83382000D03*
%TD*%
D10*
%TO.C,SW15*%
X152636000Y-67174000D03*
D11*
X157856000Y-71374000D03*
D12*
X152856000Y-75174000D03*
X157856000Y-77274000D03*
D10*
X163076000Y-67174000D03*
D13*
X163356000Y-71374000D03*
X152356000Y-71374000D03*
%TD*%
D10*
%TO.C,SW16*%
X170636000Y-60316000D03*
D11*
X175856000Y-64516000D03*
D12*
X170856000Y-68316000D03*
X175856000Y-70416000D03*
D10*
X181076000Y-60316000D03*
D13*
X181356000Y-64516000D03*
X170356000Y-64516000D03*
%TD*%
D10*
%TO.C,SW17*%
X188636000Y-65650000D03*
D11*
X193856000Y-69850000D03*
D12*
X188856000Y-73650000D03*
X193856000Y-75750000D03*
D10*
X199076000Y-65650000D03*
D13*
X199356000Y-69850000D03*
X188356000Y-69850000D03*
%TD*%
D10*
%TO.C,SW18*%
X206616000Y-68190000D03*
D11*
X211836000Y-72390000D03*
D12*
X206836000Y-76190000D03*
X211836000Y-78290000D03*
D10*
X217056000Y-68190000D03*
D13*
X217336000Y-72390000D03*
X206336000Y-72390000D03*
%TD*%
D10*
%TO.C,SW20*%
X224806653Y-104329307D03*
D11*
X222386000Y-98082000D03*
D12*
X228616127Y-97291103D03*
X225336000Y-92972450D03*
D10*
X215765347Y-99109307D03*
D13*
X217622860Y-95332000D03*
X227149140Y-100832000D03*
%TD*%
D10*
%TO.C,SW21*%
X207781093Y-95489924D03*
D11*
X203826000Y-90082000D03*
D12*
X209639142Y-87705577D03*
X205353032Y-84383038D03*
D10*
X197696827Y-92787853D03*
D13*
X198513408Y-88658495D03*
X209138592Y-91505505D03*
%TD*%
D10*
%TO.C,SW11_r1*%
X61480000Y-48632000D03*
D11*
X66700000Y-52832000D03*
D12*
X61700000Y-56632000D03*
X66700000Y-58732000D03*
D10*
X71920000Y-48632000D03*
D13*
X72200000Y-52832000D03*
X61200000Y-52832000D03*
%TD*%
D10*
%TO.C,SW12_r1*%
X43466000Y-51172000D03*
D11*
X48686000Y-55372000D03*
D12*
X43686000Y-59172000D03*
X48686000Y-61272000D03*
D10*
X53906000Y-51172000D03*
D13*
X54186000Y-55372000D03*
X43186000Y-55372000D03*
%TD*%
D10*
%TO.C,SW13_r1*%
X115512000Y-79182000D03*
D11*
X120732000Y-83382000D03*
D12*
X115732000Y-87182000D03*
X120732000Y-89282000D03*
D10*
X125952000Y-79182000D03*
D13*
X126232000Y-83382000D03*
X115232000Y-83382000D03*
%TD*%
D10*
%TO.C,SW15_r1*%
X79468000Y-60316000D03*
D11*
X84688000Y-64516000D03*
D12*
X79688000Y-68316000D03*
X84688000Y-70416000D03*
D10*
X89908000Y-60316000D03*
D13*
X90188000Y-64516000D03*
X79188000Y-64516000D03*
%TD*%
D10*
%TO.C,SW16_r1*%
X61480000Y-65650000D03*
D11*
X66700000Y-69850000D03*
D12*
X61700000Y-73650000D03*
X66700000Y-75750000D03*
D10*
X71920000Y-65650000D03*
D13*
X72200000Y-69850000D03*
X61200000Y-69850000D03*
%TD*%
D10*
%TO.C,SW17_r1*%
X43466000Y-68190000D03*
D11*
X48686000Y-72390000D03*
D12*
X43686000Y-76190000D03*
X48686000Y-78290000D03*
D10*
X53906000Y-68190000D03*
D13*
X54186000Y-72390000D03*
X43186000Y-72390000D03*
%TD*%
D10*
%TO.C,SW18_r1*%
X97494000Y-67174000D03*
D11*
X102714000Y-71374000D03*
D12*
X97714000Y-75174000D03*
X102714000Y-77274000D03*
D10*
X107934000Y-67174000D03*
D13*
X108214000Y-71374000D03*
X97214000Y-71374000D03*
%TD*%
D10*
%TO.C,SW2_r1*%
X115512000Y-45182000D03*
D11*
X120732000Y-49382000D03*
D12*
X115732000Y-53182000D03*
X120732000Y-55282000D03*
D10*
X125952000Y-45182000D03*
D13*
X126232000Y-49382000D03*
X115232000Y-49382000D03*
%TD*%
D10*
%TO.C,SW3_r1*%
X97494000Y-33182000D03*
D11*
X102714000Y-37382000D03*
D12*
X97714000Y-41182000D03*
X102714000Y-43282000D03*
D10*
X107934000Y-33182000D03*
D13*
X108214000Y-37382000D03*
X97214000Y-37382000D03*
%TD*%
D10*
%TO.C,SW4_r1*%
X79468000Y-26182000D03*
D11*
X84688000Y-30382000D03*
D12*
X79688000Y-34182000D03*
X84688000Y-36282000D03*
D10*
X89908000Y-26182000D03*
D13*
X90188000Y-30382000D03*
X79188000Y-30382000D03*
%TD*%
D10*
%TO.C,SW5_r1*%
X61480000Y-31682000D03*
D11*
X66700000Y-35882000D03*
D12*
X61700000Y-39682000D03*
X66700000Y-41782000D03*
D10*
X71920000Y-31682000D03*
D13*
X72200000Y-35882000D03*
X61200000Y-35882000D03*
%TD*%
D10*
%TO.C,SW6_r1*%
X43466000Y-34182000D03*
D11*
X48686000Y-38382000D03*
D12*
X43686000Y-42182000D03*
X48686000Y-44282000D03*
D10*
X53906000Y-34182000D03*
D13*
X54186000Y-38382000D03*
X43186000Y-38382000D03*
%TD*%
D10*
%TO.C,SW7_r1*%
X115512000Y-62182000D03*
D11*
X120732000Y-66382000D03*
D12*
X115732000Y-70182000D03*
X120732000Y-72282000D03*
D10*
X125952000Y-62182000D03*
D13*
X126232000Y-66382000D03*
X115232000Y-66382000D03*
%TD*%
D10*
%TO.C,SW8_r1*%
X97494000Y-50156000D03*
D11*
X102714000Y-54356000D03*
D12*
X97714000Y-58156000D03*
X102714000Y-60256000D03*
D10*
X107934000Y-50156000D03*
D13*
X108214000Y-54356000D03*
X97214000Y-54356000D03*
%TD*%
D10*
%TO.C,SW9_r1*%
X79468000Y-43298000D03*
D11*
X84688000Y-47498000D03*
D12*
X79688000Y-51298000D03*
X84688000Y-53398000D03*
D10*
X89908000Y-43298000D03*
D13*
X90188000Y-47498000D03*
X79188000Y-47498000D03*
%TD*%
D10*
%TO.C,SW20_r1*%
X44838653Y-99109307D03*
D11*
X38218000Y-98082000D03*
D12*
X40648127Y-92291103D03*
X35268000Y-92972450D03*
D10*
X35797347Y-104329307D03*
D13*
X33454860Y-100832000D03*
X42981140Y-95332000D03*
%TD*%
D10*
%TO.C,SW21_r1*%
X62907173Y-92787853D03*
D11*
X56778000Y-90082000D03*
D12*
X60624117Y-85117387D03*
X55250968Y-84383038D03*
D10*
X52822907Y-95489924D03*
D13*
X51465408Y-91505505D03*
X62090592Y-88658495D03*
%TD*%
D21*
%TO.C,REF\u002A\u002A*%
X56642000Y-46282000D03*
X75692000Y-65332000D03*
X94742000Y-46282000D03*
X75692000Y-27232000D03*
%TD*%
%TO.C,REF\u002A\u002A*%
X185356000Y-27232000D03*
X204406000Y-46282000D03*
X185356000Y-65332000D03*
X166306000Y-46282000D03*
%TD*%
D22*
%TO.C,BatGND4*%
X36068000Y-50800000D03*
%TD*%
%TO.C,BatGND1*%
X224282000Y-50800000D03*
%TD*%
%TO.C,Bat+r1*%
X235966000Y-50800000D03*
%TD*%
%TO.C,Bat+1*%
X24638000Y-50800000D03*
%TD*%
M02*
