%TF.GenerationSoftware,KiCad,Pcbnew,(6.0.4-0)*%
%TF.CreationDate,2022-05-14T15:15:58+02:00*%
%TF.ProjectId,sweepv2.1,73776565-7076-4322-9e31-2e6b69636164,rev?*%
%TF.SameCoordinates,Original*%
%TF.FileFunction,Profile,NP*%
%FSLAX46Y46*%
G04 Gerber Fmt 4.6, Leading zero omitted, Abs format (unit mm)*
G04 Created by KiCad (PCBNEW (6.0.4-0)) date 2022-05-14 15:15:58*
%MOMM*%
%LPD*%
G01*
G04 APERTURE LIST*
%TA.AperFunction,Profile*%
%ADD10C,0.050000*%
%TD*%
G04 APERTURE END LIST*
D10*
X129349501Y-48767999D02*
G75*
G03*
X131254499Y-48768000I952499J380999D01*
G01*
X131254499Y-53848001D02*
G75*
G03*
X129349501Y-53848000I-952499J-380999D01*
G01*
X131572000Y-53848000D02*
X131254500Y-53848000D01*
X131572000Y-48768000D02*
X131254500Y-48768000D01*
X129349501Y-72643999D02*
G75*
G03*
X131254499Y-72644000I952499J380999D01*
G01*
X131254499Y-77724001D02*
G75*
G03*
X129349501Y-77724000I-952499J-380999D01*
G01*
X131508500Y-77724000D02*
X131254500Y-77724000D01*
X131572000Y-72644000D02*
X131254500Y-72644000D01*
X131572000Y-53848000D02*
X131572000Y-72644000D01*
X128960000Y-53848000D02*
X128960000Y-72644000D01*
X129349500Y-72644000D02*
X128960000Y-72644000D01*
X129349500Y-77724000D02*
X128960000Y-77724000D01*
X129349500Y-48768000D02*
X128960000Y-48768000D01*
X131466055Y-40278702D02*
X131572000Y-48768000D01*
X129013945Y-40278702D02*
X128960000Y-48768000D01*
X129349500Y-53848000D02*
X128960000Y-53848000D01*
X238688000Y-75438000D02*
X238700000Y-81534000D01*
X238688000Y-66548000D02*
X238688000Y-75438000D01*
X21792000Y-73914000D02*
X21780000Y-81534000D01*
X21792000Y-66548000D02*
X21792000Y-73914000D01*
X21792000Y-50442000D02*
X21792000Y-58420000D01*
X238688000Y-50442000D02*
X238688000Y-58420000D01*
X78412223Y-21502679D02*
X82613611Y-21508139D01*
X21779999Y-81534000D02*
G75*
G03*
X23526696Y-88858150I16773853J129949D01*
G01*
X23526696Y-88858150D02*
X34034000Y-107451265D01*
X127587000Y-38265000D02*
G75*
G03*
X82613611Y-21508139I-44973389J-51973139D01*
G01*
X38446998Y-49694917D02*
X22542000Y-49692000D01*
X40481999Y-47763999D02*
X40481955Y-30439419D01*
X21792000Y-58420000D02*
X21792000Y-66548000D01*
X126936000Y-91383119D02*
G75*
G03*
X128975507Y-89545022I59508J1984513D01*
G01*
X126936000Y-91383120D02*
G75*
G03*
X58294866Y-98863946I578038J-323956333D01*
G01*
X34034000Y-107451265D02*
G75*
G03*
X36766000Y-108050000I1662000J1051265D01*
G01*
X78412223Y-21502679D02*
G75*
G03*
X40916710Y-29758889I11947335J-143529624D01*
G01*
X38446998Y-49694918D02*
G75*
G03*
X40481999Y-47763999I35002J2000918D01*
G01*
X129013945Y-40278702D02*
G75*
G03*
X127587000Y-38265000I-3871945J-1231298D01*
G01*
X58294866Y-98863946D02*
G75*
G03*
X36766000Y-108050000I22787134J-83226054D01*
G01*
X40916710Y-29758889D02*
G75*
G03*
X40481955Y-30439419I315245J-680530D01*
G01*
X128960000Y-77724000D02*
X128975507Y-89545022D01*
X22542000Y-49692000D02*
G75*
G03*
X21792000Y-50442000I0J-750000D01*
G01*
X182067777Y-21502679D02*
X178120389Y-21508139D01*
X236953303Y-88858150D02*
G75*
G03*
X238700000Y-81534000I-15027155J7454099D01*
G01*
X236953304Y-88858150D02*
X226446000Y-107451265D01*
X178120389Y-21508139D02*
G75*
G03*
X132892692Y-38264646I-254000J-68730000D01*
G01*
X222033002Y-49694917D02*
X237938000Y-49692000D01*
X219998001Y-47763999D02*
X219998045Y-30439419D01*
X238688000Y-58420000D02*
X238688000Y-66548000D01*
X131506254Y-89547024D02*
G75*
G03*
X133544000Y-91383119I1977999J146416D01*
G01*
X202185134Y-98863945D02*
G75*
G03*
X133544000Y-91383119I-69219172J-316475508D01*
G01*
X223714000Y-108050000D02*
G75*
G03*
X226446000Y-107451265I1070000J1650000D01*
G01*
X219563290Y-29758889D02*
G75*
G03*
X182067777Y-21502679I-49442848J-135273414D01*
G01*
X219998002Y-47763999D02*
G75*
G03*
X222033002Y-49694917I1999998J69999D01*
G01*
X132893000Y-38265000D02*
G75*
G03*
X131466055Y-40278702I2445000J-3245000D01*
G01*
X223714000Y-108050000D02*
G75*
G03*
X202185134Y-98863946I-44316000J-74040000D01*
G01*
X219998045Y-30439419D02*
G75*
G03*
X219563290Y-29758889I-750000J0D01*
G01*
X131508500Y-77724000D02*
X131506000Y-89547024D01*
X238688000Y-50442000D02*
G75*
G03*
X237938000Y-49692000I-750000J0D01*
G01*
M02*
