%TF.GenerationSoftware,KiCad,Pcbnew,(6.0.4-0)*%
%TF.CreationDate,2022-05-14T15:15:58+02:00*%
%TF.ProjectId,sweepv2.1,73776565-7076-4322-9e31-2e6b69636164,rev?*%
%TF.SameCoordinates,Original*%
%TF.FileFunction,Legend,Bot*%
%TF.FilePolarity,Positive*%
%FSLAX46Y46*%
G04 Gerber Fmt 4.6, Leading zero omitted, Abs format (unit mm)*
G04 Created by KiCad (PCBNEW (6.0.4-0)) date 2022-05-14 15:15:58*
%MOMM*%
%LPD*%
G01*
G04 APERTURE LIST*
%ADD10C,0.300000*%
%ADD11C,0.150000*%
%ADD12C,0.125000*%
%ADD13C,0.100000*%
%ADD14C,0.010000*%
%ADD15C,0.200000*%
G04 APERTURE END LIST*
D10*
X147648571Y-39723142D02*
X147434285Y-39794571D01*
X147077142Y-39794571D01*
X146934285Y-39723142D01*
X146862857Y-39651714D01*
X146791428Y-39508857D01*
X146791428Y-39366000D01*
X146862857Y-39223142D01*
X146934285Y-39151714D01*
X147077142Y-39080285D01*
X147362857Y-39008857D01*
X147505714Y-38937428D01*
X147577142Y-38866000D01*
X147648571Y-38723142D01*
X147648571Y-38580285D01*
X147577142Y-38437428D01*
X147505714Y-38366000D01*
X147362857Y-38294571D01*
X147005714Y-38294571D01*
X146791428Y-38366000D01*
X146291428Y-38794571D02*
X146005714Y-39794571D01*
X145720000Y-39080285D01*
X145434285Y-39794571D01*
X145148571Y-38794571D01*
X144005714Y-39723142D02*
X144148571Y-39794571D01*
X144434285Y-39794571D01*
X144577142Y-39723142D01*
X144648571Y-39580285D01*
X144648571Y-39008857D01*
X144577142Y-38866000D01*
X144434285Y-38794571D01*
X144148571Y-38794571D01*
X144005714Y-38866000D01*
X143934285Y-39008857D01*
X143934285Y-39151714D01*
X144648571Y-39294571D01*
X142720000Y-39723142D02*
X142862857Y-39794571D01*
X143148571Y-39794571D01*
X143291428Y-39723142D01*
X143362857Y-39580285D01*
X143362857Y-39008857D01*
X143291428Y-38866000D01*
X143148571Y-38794571D01*
X142862857Y-38794571D01*
X142720000Y-38866000D01*
X142648571Y-39008857D01*
X142648571Y-39151714D01*
X143362857Y-39294571D01*
X142005714Y-38794571D02*
X142005714Y-40294571D01*
X142005714Y-38866000D02*
X141862857Y-38794571D01*
X141577142Y-38794571D01*
X141434285Y-38866000D01*
X141362857Y-38937428D01*
X141291428Y-39080285D01*
X141291428Y-39508857D01*
X141362857Y-39651714D01*
X141434285Y-39723142D01*
X141577142Y-39794571D01*
X141862857Y-39794571D01*
X142005714Y-39723142D01*
X139648571Y-38794571D02*
X139291428Y-39794571D01*
X138934285Y-38794571D01*
X137291428Y-38437428D02*
X137220000Y-38366000D01*
X137077142Y-38294571D01*
X136720000Y-38294571D01*
X136577142Y-38366000D01*
X136505714Y-38437428D01*
X136434285Y-38580285D01*
X136434285Y-38723142D01*
X136505714Y-38937428D01*
X137362857Y-39794571D01*
X136434285Y-39794571D01*
X135791428Y-39651714D02*
X135720000Y-39723142D01*
X135791428Y-39794571D01*
X135862857Y-39723142D01*
X135791428Y-39651714D01*
X135791428Y-39794571D01*
X134291428Y-39794571D02*
X135148571Y-39794571D01*
X134720000Y-39794571D02*
X134720000Y-38294571D01*
X134862857Y-38508857D01*
X135005714Y-38651714D01*
X135148571Y-38723142D01*
X183298571Y-82395142D02*
X183084285Y-82466571D01*
X182727142Y-82466571D01*
X182584285Y-82395142D01*
X182512857Y-82323714D01*
X182441428Y-82180857D01*
X182441428Y-82038000D01*
X182512857Y-81895142D01*
X182584285Y-81823714D01*
X182727142Y-81752285D01*
X183012857Y-81680857D01*
X183155714Y-81609428D01*
X183227142Y-81538000D01*
X183298571Y-81395142D01*
X183298571Y-81252285D01*
X183227142Y-81109428D01*
X183155714Y-81038000D01*
X183012857Y-80966571D01*
X182655714Y-80966571D01*
X182441428Y-81038000D01*
X181941428Y-81466571D02*
X181655714Y-82466571D01*
X181370000Y-81752285D01*
X181084285Y-82466571D01*
X180798571Y-81466571D01*
X179655714Y-82395142D02*
X179798571Y-82466571D01*
X180084285Y-82466571D01*
X180227142Y-82395142D01*
X180298571Y-82252285D01*
X180298571Y-81680857D01*
X180227142Y-81538000D01*
X180084285Y-81466571D01*
X179798571Y-81466571D01*
X179655714Y-81538000D01*
X179584285Y-81680857D01*
X179584285Y-81823714D01*
X180298571Y-81966571D01*
X178370000Y-82395142D02*
X178512857Y-82466571D01*
X178798571Y-82466571D01*
X178941428Y-82395142D01*
X179012857Y-82252285D01*
X179012857Y-81680857D01*
X178941428Y-81538000D01*
X178798571Y-81466571D01*
X178512857Y-81466571D01*
X178370000Y-81538000D01*
X178298571Y-81680857D01*
X178298571Y-81823714D01*
X179012857Y-81966571D01*
X177655714Y-81466571D02*
X177655714Y-82966571D01*
X177655714Y-81538000D02*
X177512857Y-81466571D01*
X177227142Y-81466571D01*
X177084285Y-81538000D01*
X177012857Y-81609428D01*
X176941428Y-81752285D01*
X176941428Y-82180857D01*
X177012857Y-82323714D01*
X177084285Y-82395142D01*
X177227142Y-82466571D01*
X177512857Y-82466571D01*
X177655714Y-82395142D01*
X175155714Y-82466571D02*
X175155714Y-81466571D01*
X175155714Y-80966571D02*
X175227142Y-81038000D01*
X175155714Y-81109428D01*
X175084285Y-81038000D01*
X175155714Y-80966571D01*
X175155714Y-81109428D01*
X174512857Y-82395142D02*
X174370000Y-82466571D01*
X174084285Y-82466571D01*
X173941428Y-82395142D01*
X173870000Y-82252285D01*
X173870000Y-82180857D01*
X173941428Y-82038000D01*
X174084285Y-81966571D01*
X174298571Y-81966571D01*
X174441428Y-81895142D01*
X174512857Y-81752285D01*
X174512857Y-81680857D01*
X174441428Y-81538000D01*
X174298571Y-81466571D01*
X174084285Y-81466571D01*
X173941428Y-81538000D01*
X172084285Y-82466571D02*
X172084285Y-80966571D01*
X172084285Y-81538000D02*
X171941428Y-81466571D01*
X171655714Y-81466571D01*
X171512857Y-81538000D01*
X171441428Y-81609428D01*
X171370000Y-81752285D01*
X171370000Y-82180857D01*
X171441428Y-82323714D01*
X171512857Y-82395142D01*
X171655714Y-82466571D01*
X171941428Y-82466571D01*
X172084285Y-82395142D01*
X170084285Y-82466571D02*
X170084285Y-81680857D01*
X170155714Y-81538000D01*
X170298571Y-81466571D01*
X170584285Y-81466571D01*
X170727142Y-81538000D01*
X170084285Y-82395142D02*
X170227142Y-82466571D01*
X170584285Y-82466571D01*
X170727142Y-82395142D01*
X170798571Y-82252285D01*
X170798571Y-82109428D01*
X170727142Y-81966571D01*
X170584285Y-81895142D01*
X170227142Y-81895142D01*
X170084285Y-81823714D01*
X169441428Y-82395142D02*
X169298571Y-82466571D01*
X169012857Y-82466571D01*
X168870000Y-82395142D01*
X168798571Y-82252285D01*
X168798571Y-82180857D01*
X168870000Y-82038000D01*
X169012857Y-81966571D01*
X169227142Y-81966571D01*
X169370000Y-81895142D01*
X169441428Y-81752285D01*
X169441428Y-81680857D01*
X169370000Y-81538000D01*
X169227142Y-81466571D01*
X169012857Y-81466571D01*
X168870000Y-81538000D01*
X167584285Y-82395142D02*
X167727142Y-82466571D01*
X168012857Y-82466571D01*
X168155714Y-82395142D01*
X168227142Y-82252285D01*
X168227142Y-81680857D01*
X168155714Y-81538000D01*
X168012857Y-81466571D01*
X167727142Y-81466571D01*
X167584285Y-81538000D01*
X167512857Y-81680857D01*
X167512857Y-81823714D01*
X168227142Y-81966571D01*
X166227142Y-82466571D02*
X166227142Y-80966571D01*
X166227142Y-82395142D02*
X166370000Y-82466571D01*
X166655714Y-82466571D01*
X166798571Y-82395142D01*
X166870000Y-82323714D01*
X166941428Y-82180857D01*
X166941428Y-81752285D01*
X166870000Y-81609428D01*
X166798571Y-81538000D01*
X166655714Y-81466571D01*
X166370000Y-81466571D01*
X166227142Y-81538000D01*
X164155714Y-82466571D02*
X164298571Y-82395142D01*
X164370000Y-82323714D01*
X164441428Y-82180857D01*
X164441428Y-81752285D01*
X164370000Y-81609428D01*
X164298571Y-81538000D01*
X164155714Y-81466571D01*
X163941428Y-81466571D01*
X163798571Y-81538000D01*
X163727142Y-81609428D01*
X163655714Y-81752285D01*
X163655714Y-82180857D01*
X163727142Y-82323714D01*
X163798571Y-82395142D01*
X163941428Y-82466571D01*
X164155714Y-82466571D01*
X163012857Y-81466571D02*
X163012857Y-82466571D01*
X163012857Y-81609428D02*
X162941428Y-81538000D01*
X162798571Y-81466571D01*
X162584285Y-81466571D01*
X162441428Y-81538000D01*
X162370000Y-81680857D01*
X162370000Y-82466571D01*
X160727142Y-81466571D02*
X160155714Y-81466571D01*
X160512857Y-80966571D02*
X160512857Y-82252285D01*
X160441428Y-82395142D01*
X160298571Y-82466571D01*
X160155714Y-82466571D01*
X159655714Y-82466571D02*
X159655714Y-80966571D01*
X159012857Y-82466571D02*
X159012857Y-81680857D01*
X159084285Y-81538000D01*
X159227142Y-81466571D01*
X159441428Y-81466571D01*
X159584285Y-81538000D01*
X159655714Y-81609428D01*
X157727142Y-82395142D02*
X157870000Y-82466571D01*
X158155714Y-82466571D01*
X158298571Y-82395142D01*
X158370000Y-82252285D01*
X158370000Y-81680857D01*
X158298571Y-81538000D01*
X158155714Y-81466571D01*
X157870000Y-81466571D01*
X157727142Y-81538000D01*
X157655714Y-81680857D01*
X157655714Y-81823714D01*
X158370000Y-81966571D01*
X155370000Y-81680857D02*
X155870000Y-81680857D01*
X155870000Y-82466571D02*
X155870000Y-80966571D01*
X155155714Y-80966571D01*
X154012857Y-82395142D02*
X154155714Y-82466571D01*
X154441428Y-82466571D01*
X154584285Y-82395142D01*
X154655714Y-82252285D01*
X154655714Y-81680857D01*
X154584285Y-81538000D01*
X154441428Y-81466571D01*
X154155714Y-81466571D01*
X154012857Y-81538000D01*
X153941428Y-81680857D01*
X153941428Y-81823714D01*
X154655714Y-81966571D01*
X153298571Y-82466571D02*
X153298571Y-81466571D01*
X153298571Y-81752285D02*
X153227142Y-81609428D01*
X153155714Y-81538000D01*
X153012857Y-81466571D01*
X152870000Y-81466571D01*
X152370000Y-82466571D02*
X152370000Y-81466571D01*
X152370000Y-81752285D02*
X152298571Y-81609428D01*
X152227142Y-81538000D01*
X152084285Y-81466571D01*
X151941428Y-81466571D01*
X151441428Y-82466571D02*
X151441428Y-81466571D01*
X151441428Y-80966571D02*
X151512857Y-81038000D01*
X151441428Y-81109428D01*
X151370000Y-81038000D01*
X151441428Y-80966571D01*
X151441428Y-81109428D01*
X150798571Y-82395142D02*
X150655714Y-82466571D01*
X150370000Y-82466571D01*
X150227142Y-82395142D01*
X150155714Y-82252285D01*
X150155714Y-82180857D01*
X150227142Y-82038000D01*
X150370000Y-81966571D01*
X150584285Y-81966571D01*
X150727142Y-81895142D01*
X150798571Y-81752285D01*
X150798571Y-81680857D01*
X150727142Y-81538000D01*
X150584285Y-81466571D01*
X150370000Y-81466571D01*
X150227142Y-81538000D01*
X149512857Y-82323714D02*
X149441428Y-82395142D01*
X149512857Y-82466571D01*
X149584285Y-82395142D01*
X149512857Y-82323714D01*
X149512857Y-82466571D01*
D11*
%TO.C,SW10*%
X172905523Y-42102761D02*
X172762666Y-42150380D01*
X172524571Y-42150380D01*
X172429333Y-42102761D01*
X172381714Y-42055142D01*
X172334095Y-41959904D01*
X172334095Y-41864666D01*
X172381714Y-41769428D01*
X172429333Y-41721809D01*
X172524571Y-41674190D01*
X172715047Y-41626571D01*
X172810285Y-41578952D01*
X172857904Y-41531333D01*
X172905523Y-41436095D01*
X172905523Y-41340857D01*
X172857904Y-41245619D01*
X172810285Y-41198000D01*
X172715047Y-41150380D01*
X172476952Y-41150380D01*
X172334095Y-41198000D01*
X172000761Y-41150380D02*
X171762666Y-42150380D01*
X171572190Y-41436095D01*
X171381714Y-42150380D01*
X171143619Y-41150380D01*
X170238857Y-42150380D02*
X170810285Y-42150380D01*
X170524571Y-42150380D02*
X170524571Y-41150380D01*
X170619809Y-41293238D01*
X170715047Y-41388476D01*
X170810285Y-41436095D01*
X169619809Y-41150380D02*
X169524571Y-41150380D01*
X169429333Y-41198000D01*
X169381714Y-41245619D01*
X169334095Y-41340857D01*
X169286476Y-41531333D01*
X169286476Y-41769428D01*
X169334095Y-41959904D01*
X169381714Y-42055142D01*
X169429333Y-42102761D01*
X169524571Y-42150380D01*
X169619809Y-42150380D01*
X169715047Y-42102761D01*
X169762666Y-42055142D01*
X169810285Y-41959904D01*
X169857904Y-41769428D01*
X169857904Y-41531333D01*
X169810285Y-41340857D01*
X169762666Y-41245619D01*
X169715047Y-41198000D01*
X169619809Y-41150380D01*
D12*
%TO.C,U1*%
X236418952Y-60419000D02*
X236466571Y-60383285D01*
X236538000Y-60383285D01*
X236609428Y-60419000D01*
X236657047Y-60490428D01*
X236680857Y-60561857D01*
X236704666Y-60704714D01*
X236704666Y-60811857D01*
X236680857Y-60954714D01*
X236657047Y-61026142D01*
X236609428Y-61097571D01*
X236538000Y-61133285D01*
X236490380Y-61133285D01*
X236418952Y-61097571D01*
X236395142Y-61061857D01*
X236395142Y-60811857D01*
X236490380Y-60811857D01*
X236180857Y-61133285D02*
X236180857Y-60383285D01*
X235895142Y-61133285D01*
X235895142Y-60383285D01*
X235657047Y-61133285D02*
X235657047Y-60383285D01*
X235538000Y-60383285D01*
X235466571Y-60419000D01*
X235418952Y-60490428D01*
X235395142Y-60561857D01*
X235371333Y-60704714D01*
X235371333Y-60811857D01*
X235395142Y-60954714D01*
X235418952Y-61026142D01*
X235466571Y-61097571D01*
X235538000Y-61133285D01*
X235657047Y-61133285D01*
X236438952Y-57839000D02*
X236486571Y-57803285D01*
X236558000Y-57803285D01*
X236629428Y-57839000D01*
X236677047Y-57910428D01*
X236700857Y-57981857D01*
X236724666Y-58124714D01*
X236724666Y-58231857D01*
X236700857Y-58374714D01*
X236677047Y-58446142D01*
X236629428Y-58517571D01*
X236558000Y-58553285D01*
X236510380Y-58553285D01*
X236438952Y-58517571D01*
X236415142Y-58481857D01*
X236415142Y-58231857D01*
X236510380Y-58231857D01*
X236200857Y-58553285D02*
X236200857Y-57803285D01*
X235915142Y-58553285D01*
X235915142Y-57803285D01*
X235677047Y-58553285D02*
X235677047Y-57803285D01*
X235558000Y-57803285D01*
X235486571Y-57839000D01*
X235438952Y-57910428D01*
X235415142Y-57981857D01*
X235391333Y-58124714D01*
X235391333Y-58231857D01*
X235415142Y-58374714D01*
X235438952Y-58446142D01*
X235486571Y-58517571D01*
X235558000Y-58553285D01*
X235677047Y-58553285D01*
X224788952Y-55309000D02*
X224836571Y-55273285D01*
X224908000Y-55273285D01*
X224979428Y-55309000D01*
X225027047Y-55380428D01*
X225050857Y-55451857D01*
X225074666Y-55594714D01*
X225074666Y-55701857D01*
X225050857Y-55844714D01*
X225027047Y-55916142D01*
X224979428Y-55987571D01*
X224908000Y-56023285D01*
X224860380Y-56023285D01*
X224788952Y-55987571D01*
X224765142Y-55951857D01*
X224765142Y-55701857D01*
X224860380Y-55701857D01*
X224550857Y-56023285D02*
X224550857Y-55273285D01*
X224265142Y-56023285D01*
X224265142Y-55273285D01*
X224027047Y-56023285D02*
X224027047Y-55273285D01*
X223908000Y-55273285D01*
X223836571Y-55309000D01*
X223788952Y-55380428D01*
X223765142Y-55451857D01*
X223741333Y-55594714D01*
X223741333Y-55701857D01*
X223765142Y-55844714D01*
X223788952Y-55916142D01*
X223836571Y-55987571D01*
X223908000Y-56023285D01*
X224027047Y-56023285D01*
X224883238Y-53383285D02*
X225049904Y-53026142D01*
X225168952Y-53383285D02*
X225168952Y-52633285D01*
X224978476Y-52633285D01*
X224930857Y-52669000D01*
X224907047Y-52704714D01*
X224883238Y-52776142D01*
X224883238Y-52883285D01*
X224907047Y-52954714D01*
X224930857Y-52990428D01*
X224978476Y-53026142D01*
X225168952Y-53026142D01*
X224692761Y-53169000D02*
X224454666Y-53169000D01*
X224740380Y-53383285D02*
X224573714Y-52633285D01*
X224407047Y-53383285D01*
X224288000Y-52633285D02*
X224168952Y-53383285D01*
X224073714Y-52847571D01*
X223978476Y-53383285D01*
X223859428Y-52633285D01*
D11*
D12*
%TO.C,U2*%
X36566952Y-60419000D02*
X36614571Y-60383285D01*
X36686000Y-60383285D01*
X36757428Y-60419000D01*
X36805047Y-60490428D01*
X36828857Y-60561857D01*
X36852666Y-60704714D01*
X36852666Y-60811857D01*
X36828857Y-60954714D01*
X36805047Y-61026142D01*
X36757428Y-61097571D01*
X36686000Y-61133285D01*
X36638380Y-61133285D01*
X36566952Y-61097571D01*
X36543142Y-61061857D01*
X36543142Y-60811857D01*
X36638380Y-60811857D01*
X36328857Y-61133285D02*
X36328857Y-60383285D01*
X36043142Y-61133285D01*
X36043142Y-60383285D01*
X35805047Y-61133285D02*
X35805047Y-60383285D01*
X35686000Y-60383285D01*
X35614571Y-60419000D01*
X35566952Y-60490428D01*
X35543142Y-60561857D01*
X35519333Y-60704714D01*
X35519333Y-60811857D01*
X35543142Y-60954714D01*
X35566952Y-61026142D01*
X35614571Y-61097571D01*
X35686000Y-61133285D01*
X35805047Y-61133285D01*
X36586952Y-57839000D02*
X36634571Y-57803285D01*
X36706000Y-57803285D01*
X36777428Y-57839000D01*
X36825047Y-57910428D01*
X36848857Y-57981857D01*
X36872666Y-58124714D01*
X36872666Y-58231857D01*
X36848857Y-58374714D01*
X36825047Y-58446142D01*
X36777428Y-58517571D01*
X36706000Y-58553285D01*
X36658380Y-58553285D01*
X36586952Y-58517571D01*
X36563142Y-58481857D01*
X36563142Y-58231857D01*
X36658380Y-58231857D01*
X36348857Y-58553285D02*
X36348857Y-57803285D01*
X36063142Y-58553285D01*
X36063142Y-57803285D01*
X35825047Y-58553285D02*
X35825047Y-57803285D01*
X35706000Y-57803285D01*
X35634571Y-57839000D01*
X35586952Y-57910428D01*
X35563142Y-57981857D01*
X35539333Y-58124714D01*
X35539333Y-58231857D01*
X35563142Y-58374714D01*
X35586952Y-58446142D01*
X35634571Y-58517571D01*
X35706000Y-58553285D01*
X35825047Y-58553285D01*
X24936952Y-55309000D02*
X24984571Y-55273285D01*
X25056000Y-55273285D01*
X25127428Y-55309000D01*
X25175047Y-55380428D01*
X25198857Y-55451857D01*
X25222666Y-55594714D01*
X25222666Y-55701857D01*
X25198857Y-55844714D01*
X25175047Y-55916142D01*
X25127428Y-55987571D01*
X25056000Y-56023285D01*
X25008380Y-56023285D01*
X24936952Y-55987571D01*
X24913142Y-55951857D01*
X24913142Y-55701857D01*
X25008380Y-55701857D01*
X24698857Y-56023285D02*
X24698857Y-55273285D01*
X24413142Y-56023285D01*
X24413142Y-55273285D01*
X24175047Y-56023285D02*
X24175047Y-55273285D01*
X24056000Y-55273285D01*
X23984571Y-55309000D01*
X23936952Y-55380428D01*
X23913142Y-55451857D01*
X23889333Y-55594714D01*
X23889333Y-55701857D01*
X23913142Y-55844714D01*
X23936952Y-55916142D01*
X23984571Y-55987571D01*
X24056000Y-56023285D01*
X24175047Y-56023285D01*
X25031238Y-53383285D02*
X25197904Y-53026142D01*
X25316952Y-53383285D02*
X25316952Y-52633285D01*
X25126476Y-52633285D01*
X25078857Y-52669000D01*
X25055047Y-52704714D01*
X25031238Y-52776142D01*
X25031238Y-52883285D01*
X25055047Y-52954714D01*
X25078857Y-52990428D01*
X25126476Y-53026142D01*
X25316952Y-53026142D01*
X24840761Y-53169000D02*
X24602666Y-53169000D01*
X24888380Y-53383285D02*
X24721714Y-52633285D01*
X24555047Y-53383285D01*
X24436000Y-52633285D02*
X24316952Y-53383285D01*
X24221714Y-52847571D01*
X24126476Y-53383285D01*
X24007428Y-52633285D01*
D11*
%TO.C,J1*%
X29741880Y-85115595D02*
X29741880Y-85687023D01*
X30741880Y-85401309D02*
X29741880Y-85401309D01*
X30741880Y-86591785D02*
X30265690Y-86258452D01*
X30741880Y-86020357D02*
X29741880Y-86020357D01*
X29741880Y-86401309D01*
X29789500Y-86496547D01*
X29837119Y-86544166D01*
X29932357Y-86591785D01*
X30075214Y-86591785D01*
X30170452Y-86544166D01*
X30218071Y-86496547D01*
X30265690Y-86401309D01*
X30265690Y-86020357D01*
X30741880Y-87591785D02*
X30265690Y-87258452D01*
X30741880Y-87020357D02*
X29741880Y-87020357D01*
X29741880Y-87401309D01*
X29789500Y-87496547D01*
X29837119Y-87544166D01*
X29932357Y-87591785D01*
X30075214Y-87591785D01*
X30170452Y-87544166D01*
X30218071Y-87496547D01*
X30265690Y-87401309D01*
X30265690Y-87020357D01*
X30694261Y-87972738D02*
X30741880Y-88115595D01*
X30741880Y-88353690D01*
X30694261Y-88448928D01*
X30646642Y-88496547D01*
X30551404Y-88544166D01*
X30456166Y-88544166D01*
X30360928Y-88496547D01*
X30313309Y-88448928D01*
X30265690Y-88353690D01*
X30218071Y-88163214D01*
X30170452Y-88067976D01*
X30122833Y-88020357D01*
X30027595Y-87972738D01*
X29932357Y-87972738D01*
X29837119Y-88020357D01*
X29789500Y-88067976D01*
X29741880Y-88163214D01*
X29741880Y-88401309D01*
X29789500Y-88544166D01*
%TO.C,J2*%
X229512880Y-83464595D02*
X229512880Y-84036023D01*
X230512880Y-83750309D02*
X229512880Y-83750309D01*
X230512880Y-84940785D02*
X230036690Y-84607452D01*
X230512880Y-84369357D02*
X229512880Y-84369357D01*
X229512880Y-84750309D01*
X229560500Y-84845547D01*
X229608119Y-84893166D01*
X229703357Y-84940785D01*
X229846214Y-84940785D01*
X229941452Y-84893166D01*
X229989071Y-84845547D01*
X230036690Y-84750309D01*
X230036690Y-84369357D01*
X230512880Y-85940785D02*
X230036690Y-85607452D01*
X230512880Y-85369357D02*
X229512880Y-85369357D01*
X229512880Y-85750309D01*
X229560500Y-85845547D01*
X229608119Y-85893166D01*
X229703357Y-85940785D01*
X229846214Y-85940785D01*
X229941452Y-85893166D01*
X229989071Y-85845547D01*
X230036690Y-85750309D01*
X230036690Y-85369357D01*
X230465261Y-86321738D02*
X230512880Y-86464595D01*
X230512880Y-86702690D01*
X230465261Y-86797928D01*
X230417642Y-86845547D01*
X230322404Y-86893166D01*
X230227166Y-86893166D01*
X230131928Y-86845547D01*
X230084309Y-86797928D01*
X230036690Y-86702690D01*
X229989071Y-86512214D01*
X229941452Y-86416976D01*
X229893833Y-86369357D01*
X229798595Y-86321738D01*
X229703357Y-86321738D01*
X229608119Y-86369357D01*
X229560500Y-86416976D01*
X229512880Y-86512214D01*
X229512880Y-86750309D01*
X229560500Y-86893166D01*
%TO.C,SW_POWERR1*%
X234885904Y-51220761D02*
X234743047Y-51268380D01*
X234504952Y-51268380D01*
X234409714Y-51220761D01*
X234362095Y-51173142D01*
X234314476Y-51077904D01*
X234314476Y-50982666D01*
X234362095Y-50887428D01*
X234409714Y-50839809D01*
X234504952Y-50792190D01*
X234695428Y-50744571D01*
X234790666Y-50696952D01*
X234838285Y-50649333D01*
X234885904Y-50554095D01*
X234885904Y-50458857D01*
X234838285Y-50363619D01*
X234790666Y-50316000D01*
X234695428Y-50268380D01*
X234457333Y-50268380D01*
X234314476Y-50316000D01*
X233981142Y-50268380D02*
X233743047Y-51268380D01*
X233552571Y-50554095D01*
X233362095Y-51268380D01*
X233124000Y-50268380D01*
X232981142Y-51363619D02*
X232219238Y-51363619D01*
X231981142Y-51268380D02*
X231981142Y-50268380D01*
X231600190Y-50268380D01*
X231504952Y-50316000D01*
X231457333Y-50363619D01*
X231409714Y-50458857D01*
X231409714Y-50601714D01*
X231457333Y-50696952D01*
X231504952Y-50744571D01*
X231600190Y-50792190D01*
X231981142Y-50792190D01*
X230790666Y-50268380D02*
X230600190Y-50268380D01*
X230504952Y-50316000D01*
X230409714Y-50411238D01*
X230362095Y-50601714D01*
X230362095Y-50935047D01*
X230409714Y-51125523D01*
X230504952Y-51220761D01*
X230600190Y-51268380D01*
X230790666Y-51268380D01*
X230885904Y-51220761D01*
X230981142Y-51125523D01*
X231028761Y-50935047D01*
X231028761Y-50601714D01*
X230981142Y-50411238D01*
X230885904Y-50316000D01*
X230790666Y-50268380D01*
X230028761Y-50268380D02*
X229790666Y-51268380D01*
X229600190Y-50554095D01*
X229409714Y-51268380D01*
X229171619Y-50268380D01*
X228790666Y-50744571D02*
X228457333Y-50744571D01*
X228314476Y-51268380D02*
X228790666Y-51268380D01*
X228790666Y-50268380D01*
X228314476Y-50268380D01*
X227314476Y-51268380D02*
X227647809Y-50792190D01*
X227885904Y-51268380D02*
X227885904Y-50268380D01*
X227504952Y-50268380D01*
X227409714Y-50316000D01*
X227362095Y-50363619D01*
X227314476Y-50458857D01*
X227314476Y-50601714D01*
X227362095Y-50696952D01*
X227409714Y-50744571D01*
X227504952Y-50792190D01*
X227885904Y-50792190D01*
X226314476Y-51268380D02*
X226647809Y-50792190D01*
X226885904Y-51268380D02*
X226885904Y-50268380D01*
X226504952Y-50268380D01*
X226409714Y-50316000D01*
X226362095Y-50363619D01*
X226314476Y-50458857D01*
X226314476Y-50601714D01*
X226362095Y-50696952D01*
X226409714Y-50744571D01*
X226504952Y-50792190D01*
X226885904Y-50792190D01*
X225362095Y-51268380D02*
X225933523Y-51268380D01*
X225647809Y-51268380D02*
X225647809Y-50268380D01*
X225743047Y-50411238D01*
X225838285Y-50506476D01*
X225933523Y-50554095D01*
%TO.C,SW_POWER1*%
X34741904Y-51220761D02*
X34599047Y-51268380D01*
X34360952Y-51268380D01*
X34265714Y-51220761D01*
X34218095Y-51173142D01*
X34170476Y-51077904D01*
X34170476Y-50982666D01*
X34218095Y-50887428D01*
X34265714Y-50839809D01*
X34360952Y-50792190D01*
X34551428Y-50744571D01*
X34646666Y-50696952D01*
X34694285Y-50649333D01*
X34741904Y-50554095D01*
X34741904Y-50458857D01*
X34694285Y-50363619D01*
X34646666Y-50316000D01*
X34551428Y-50268380D01*
X34313333Y-50268380D01*
X34170476Y-50316000D01*
X33837142Y-50268380D02*
X33599047Y-51268380D01*
X33408571Y-50554095D01*
X33218095Y-51268380D01*
X32980000Y-50268380D01*
X32837142Y-51363619D02*
X32075238Y-51363619D01*
X31837142Y-51268380D02*
X31837142Y-50268380D01*
X31456190Y-50268380D01*
X31360952Y-50316000D01*
X31313333Y-50363619D01*
X31265714Y-50458857D01*
X31265714Y-50601714D01*
X31313333Y-50696952D01*
X31360952Y-50744571D01*
X31456190Y-50792190D01*
X31837142Y-50792190D01*
X30646666Y-50268380D02*
X30456190Y-50268380D01*
X30360952Y-50316000D01*
X30265714Y-50411238D01*
X30218095Y-50601714D01*
X30218095Y-50935047D01*
X30265714Y-51125523D01*
X30360952Y-51220761D01*
X30456190Y-51268380D01*
X30646666Y-51268380D01*
X30741904Y-51220761D01*
X30837142Y-51125523D01*
X30884761Y-50935047D01*
X30884761Y-50601714D01*
X30837142Y-50411238D01*
X30741904Y-50316000D01*
X30646666Y-50268380D01*
X29884761Y-50268380D02*
X29646666Y-51268380D01*
X29456190Y-50554095D01*
X29265714Y-51268380D01*
X29027619Y-50268380D01*
X28646666Y-50744571D02*
X28313333Y-50744571D01*
X28170476Y-51268380D02*
X28646666Y-51268380D01*
X28646666Y-50268380D01*
X28170476Y-50268380D01*
X27170476Y-51268380D02*
X27503809Y-50792190D01*
X27741904Y-51268380D02*
X27741904Y-50268380D01*
X27360952Y-50268380D01*
X27265714Y-50316000D01*
X27218095Y-50363619D01*
X27170476Y-50458857D01*
X27170476Y-50601714D01*
X27218095Y-50696952D01*
X27265714Y-50744571D01*
X27360952Y-50792190D01*
X27741904Y-50792190D01*
X26218095Y-51268380D02*
X26789523Y-51268380D01*
X26503809Y-51268380D02*
X26503809Y-50268380D01*
X26599047Y-50411238D01*
X26694285Y-50506476D01*
X26789523Y-50554095D01*
%TO.C,SW2*%
X136429333Y-43986761D02*
X136286476Y-44034380D01*
X136048380Y-44034380D01*
X135953142Y-43986761D01*
X135905523Y-43939142D01*
X135857904Y-43843904D01*
X135857904Y-43748666D01*
X135905523Y-43653428D01*
X135953142Y-43605809D01*
X136048380Y-43558190D01*
X136238857Y-43510571D01*
X136334095Y-43462952D01*
X136381714Y-43415333D01*
X136429333Y-43320095D01*
X136429333Y-43224857D01*
X136381714Y-43129619D01*
X136334095Y-43082000D01*
X136238857Y-43034380D01*
X136000761Y-43034380D01*
X135857904Y-43082000D01*
X135524571Y-43034380D02*
X135286476Y-44034380D01*
X135096000Y-43320095D01*
X134905523Y-44034380D01*
X134667428Y-43034380D01*
X134334095Y-43129619D02*
X134286476Y-43082000D01*
X134191238Y-43034380D01*
X133953142Y-43034380D01*
X133857904Y-43082000D01*
X133810285Y-43129619D01*
X133762666Y-43224857D01*
X133762666Y-43320095D01*
X133810285Y-43462952D01*
X134381714Y-44034380D01*
X133762666Y-44034380D01*
%TO.C,SW3*%
X154429333Y-31986761D02*
X154286476Y-32034380D01*
X154048380Y-32034380D01*
X153953142Y-31986761D01*
X153905523Y-31939142D01*
X153857904Y-31843904D01*
X153857904Y-31748666D01*
X153905523Y-31653428D01*
X153953142Y-31605809D01*
X154048380Y-31558190D01*
X154238857Y-31510571D01*
X154334095Y-31462952D01*
X154381714Y-31415333D01*
X154429333Y-31320095D01*
X154429333Y-31224857D01*
X154381714Y-31129619D01*
X154334095Y-31082000D01*
X154238857Y-31034380D01*
X154000761Y-31034380D01*
X153857904Y-31082000D01*
X153524571Y-31034380D02*
X153286476Y-32034380D01*
X153096000Y-31320095D01*
X152905523Y-32034380D01*
X152667428Y-31034380D01*
X152381714Y-31034380D02*
X151762666Y-31034380D01*
X152096000Y-31415333D01*
X151953142Y-31415333D01*
X151857904Y-31462952D01*
X151810285Y-31510571D01*
X151762666Y-31605809D01*
X151762666Y-31843904D01*
X151810285Y-31939142D01*
X151857904Y-31986761D01*
X151953142Y-32034380D01*
X152238857Y-32034380D01*
X152334095Y-31986761D01*
X152381714Y-31939142D01*
%TO.C,SW4*%
X172429333Y-24986761D02*
X172286476Y-25034380D01*
X172048380Y-25034380D01*
X171953142Y-24986761D01*
X171905523Y-24939142D01*
X171857904Y-24843904D01*
X171857904Y-24748666D01*
X171905523Y-24653428D01*
X171953142Y-24605809D01*
X172048380Y-24558190D01*
X172238857Y-24510571D01*
X172334095Y-24462952D01*
X172381714Y-24415333D01*
X172429333Y-24320095D01*
X172429333Y-24224857D01*
X172381714Y-24129619D01*
X172334095Y-24082000D01*
X172238857Y-24034380D01*
X172000761Y-24034380D01*
X171857904Y-24082000D01*
X171524571Y-24034380D02*
X171286476Y-25034380D01*
X171096000Y-24320095D01*
X170905523Y-25034380D01*
X170667428Y-24034380D01*
X169857904Y-24367714D02*
X169857904Y-25034380D01*
X170096000Y-23986761D02*
X170334095Y-24701047D01*
X169715047Y-24701047D01*
%TO.C,SW5*%
X190429333Y-30486761D02*
X190286476Y-30534380D01*
X190048380Y-30534380D01*
X189953142Y-30486761D01*
X189905523Y-30439142D01*
X189857904Y-30343904D01*
X189857904Y-30248666D01*
X189905523Y-30153428D01*
X189953142Y-30105809D01*
X190048380Y-30058190D01*
X190238857Y-30010571D01*
X190334095Y-29962952D01*
X190381714Y-29915333D01*
X190429333Y-29820095D01*
X190429333Y-29724857D01*
X190381714Y-29629619D01*
X190334095Y-29582000D01*
X190238857Y-29534380D01*
X190000761Y-29534380D01*
X189857904Y-29582000D01*
X189524571Y-29534380D02*
X189286476Y-30534380D01*
X189096000Y-29820095D01*
X188905523Y-30534380D01*
X188667428Y-29534380D01*
X187810285Y-29534380D02*
X188286476Y-29534380D01*
X188334095Y-30010571D01*
X188286476Y-29962952D01*
X188191238Y-29915333D01*
X187953142Y-29915333D01*
X187857904Y-29962952D01*
X187810285Y-30010571D01*
X187762666Y-30105809D01*
X187762666Y-30343904D01*
X187810285Y-30439142D01*
X187857904Y-30486761D01*
X187953142Y-30534380D01*
X188191238Y-30534380D01*
X188286476Y-30486761D01*
X188334095Y-30439142D01*
%TO.C,SW6*%
X208429333Y-32986761D02*
X208286476Y-33034380D01*
X208048380Y-33034380D01*
X207953142Y-32986761D01*
X207905523Y-32939142D01*
X207857904Y-32843904D01*
X207857904Y-32748666D01*
X207905523Y-32653428D01*
X207953142Y-32605809D01*
X208048380Y-32558190D01*
X208238857Y-32510571D01*
X208334095Y-32462952D01*
X208381714Y-32415333D01*
X208429333Y-32320095D01*
X208429333Y-32224857D01*
X208381714Y-32129619D01*
X208334095Y-32082000D01*
X208238857Y-32034380D01*
X208000761Y-32034380D01*
X207857904Y-32082000D01*
X207524571Y-32034380D02*
X207286476Y-33034380D01*
X207096000Y-32320095D01*
X206905523Y-33034380D01*
X206667428Y-32034380D01*
X205857904Y-32034380D02*
X206048380Y-32034380D01*
X206143619Y-32082000D01*
X206191238Y-32129619D01*
X206286476Y-32272476D01*
X206334095Y-32462952D01*
X206334095Y-32843904D01*
X206286476Y-32939142D01*
X206238857Y-32986761D01*
X206143619Y-33034380D01*
X205953142Y-33034380D01*
X205857904Y-32986761D01*
X205810285Y-32939142D01*
X205762666Y-32843904D01*
X205762666Y-32605809D01*
X205810285Y-32510571D01*
X205857904Y-32462952D01*
X205953142Y-32415333D01*
X206143619Y-32415333D01*
X206238857Y-32462952D01*
X206286476Y-32510571D01*
X206334095Y-32605809D01*
%TO.C,SW8*%
X136429333Y-60986761D02*
X136286476Y-61034380D01*
X136048380Y-61034380D01*
X135953142Y-60986761D01*
X135905523Y-60939142D01*
X135857904Y-60843904D01*
X135857904Y-60748666D01*
X135905523Y-60653428D01*
X135953142Y-60605809D01*
X136048380Y-60558190D01*
X136238857Y-60510571D01*
X136334095Y-60462952D01*
X136381714Y-60415333D01*
X136429333Y-60320095D01*
X136429333Y-60224857D01*
X136381714Y-60129619D01*
X136334095Y-60082000D01*
X136238857Y-60034380D01*
X136000761Y-60034380D01*
X135857904Y-60082000D01*
X135524571Y-60034380D02*
X135286476Y-61034380D01*
X135096000Y-60320095D01*
X134905523Y-61034380D01*
X134667428Y-60034380D01*
X134143619Y-60462952D02*
X134238857Y-60415333D01*
X134286476Y-60367714D01*
X134334095Y-60272476D01*
X134334095Y-60224857D01*
X134286476Y-60129619D01*
X134238857Y-60082000D01*
X134143619Y-60034380D01*
X133953142Y-60034380D01*
X133857904Y-60082000D01*
X133810285Y-60129619D01*
X133762666Y-60224857D01*
X133762666Y-60272476D01*
X133810285Y-60367714D01*
X133857904Y-60415333D01*
X133953142Y-60462952D01*
X134143619Y-60462952D01*
X134238857Y-60510571D01*
X134286476Y-60558190D01*
X134334095Y-60653428D01*
X134334095Y-60843904D01*
X134286476Y-60939142D01*
X134238857Y-60986761D01*
X134143619Y-61034380D01*
X133953142Y-61034380D01*
X133857904Y-60986761D01*
X133810285Y-60939142D01*
X133762666Y-60843904D01*
X133762666Y-60653428D01*
X133810285Y-60558190D01*
X133857904Y-60510571D01*
X133953142Y-60462952D01*
%TO.C,SW9*%
X154429333Y-48960761D02*
X154286476Y-49008380D01*
X154048380Y-49008380D01*
X153953142Y-48960761D01*
X153905523Y-48913142D01*
X153857904Y-48817904D01*
X153857904Y-48722666D01*
X153905523Y-48627428D01*
X153953142Y-48579809D01*
X154048380Y-48532190D01*
X154238857Y-48484571D01*
X154334095Y-48436952D01*
X154381714Y-48389333D01*
X154429333Y-48294095D01*
X154429333Y-48198857D01*
X154381714Y-48103619D01*
X154334095Y-48056000D01*
X154238857Y-48008380D01*
X154000761Y-48008380D01*
X153857904Y-48056000D01*
X153524571Y-48008380D02*
X153286476Y-49008380D01*
X153096000Y-48294095D01*
X152905523Y-49008380D01*
X152667428Y-48008380D01*
X152238857Y-49008380D02*
X152048380Y-49008380D01*
X151953142Y-48960761D01*
X151905523Y-48913142D01*
X151810285Y-48770285D01*
X151762666Y-48579809D01*
X151762666Y-48198857D01*
X151810285Y-48103619D01*
X151857904Y-48056000D01*
X151953142Y-48008380D01*
X152143619Y-48008380D01*
X152238857Y-48056000D01*
X152286476Y-48103619D01*
X152334095Y-48198857D01*
X152334095Y-48436952D01*
X152286476Y-48532190D01*
X152238857Y-48579809D01*
X152143619Y-48627428D01*
X151953142Y-48627428D01*
X151857904Y-48579809D01*
X151810285Y-48532190D01*
X151762666Y-48436952D01*
%TO.C,SW11*%
X190905523Y-47436761D02*
X190762666Y-47484380D01*
X190524571Y-47484380D01*
X190429333Y-47436761D01*
X190381714Y-47389142D01*
X190334095Y-47293904D01*
X190334095Y-47198666D01*
X190381714Y-47103428D01*
X190429333Y-47055809D01*
X190524571Y-47008190D01*
X190715047Y-46960571D01*
X190810285Y-46912952D01*
X190857904Y-46865333D01*
X190905523Y-46770095D01*
X190905523Y-46674857D01*
X190857904Y-46579619D01*
X190810285Y-46532000D01*
X190715047Y-46484380D01*
X190476952Y-46484380D01*
X190334095Y-46532000D01*
X190000761Y-46484380D02*
X189762666Y-47484380D01*
X189572190Y-46770095D01*
X189381714Y-47484380D01*
X189143619Y-46484380D01*
X188238857Y-47484380D02*
X188810285Y-47484380D01*
X188524571Y-47484380D02*
X188524571Y-46484380D01*
X188619809Y-46627238D01*
X188715047Y-46722476D01*
X188810285Y-46770095D01*
X187286476Y-47484380D02*
X187857904Y-47484380D01*
X187572190Y-47484380D02*
X187572190Y-46484380D01*
X187667428Y-46627238D01*
X187762666Y-46722476D01*
X187857904Y-46770095D01*
%TO.C,SW12*%
X208885523Y-49976761D02*
X208742666Y-50024380D01*
X208504571Y-50024380D01*
X208409333Y-49976761D01*
X208361714Y-49929142D01*
X208314095Y-49833904D01*
X208314095Y-49738666D01*
X208361714Y-49643428D01*
X208409333Y-49595809D01*
X208504571Y-49548190D01*
X208695047Y-49500571D01*
X208790285Y-49452952D01*
X208837904Y-49405333D01*
X208885523Y-49310095D01*
X208885523Y-49214857D01*
X208837904Y-49119619D01*
X208790285Y-49072000D01*
X208695047Y-49024380D01*
X208456952Y-49024380D01*
X208314095Y-49072000D01*
X207980761Y-49024380D02*
X207742666Y-50024380D01*
X207552190Y-49310095D01*
X207361714Y-50024380D01*
X207123619Y-49024380D01*
X206218857Y-50024380D02*
X206790285Y-50024380D01*
X206504571Y-50024380D02*
X206504571Y-49024380D01*
X206599809Y-49167238D01*
X206695047Y-49262476D01*
X206790285Y-49310095D01*
X205837904Y-49119619D02*
X205790285Y-49072000D01*
X205695047Y-49024380D01*
X205456952Y-49024380D01*
X205361714Y-49072000D01*
X205314095Y-49119619D01*
X205266476Y-49214857D01*
X205266476Y-49310095D01*
X205314095Y-49452952D01*
X205885523Y-50024380D01*
X205266476Y-50024380D01*
%TO.C,SW14*%
X136905523Y-77986761D02*
X136762666Y-78034380D01*
X136524571Y-78034380D01*
X136429333Y-77986761D01*
X136381714Y-77939142D01*
X136334095Y-77843904D01*
X136334095Y-77748666D01*
X136381714Y-77653428D01*
X136429333Y-77605809D01*
X136524571Y-77558190D01*
X136715047Y-77510571D01*
X136810285Y-77462952D01*
X136857904Y-77415333D01*
X136905523Y-77320095D01*
X136905523Y-77224857D01*
X136857904Y-77129619D01*
X136810285Y-77082000D01*
X136715047Y-77034380D01*
X136476952Y-77034380D01*
X136334095Y-77082000D01*
X136000761Y-77034380D02*
X135762666Y-78034380D01*
X135572190Y-77320095D01*
X135381714Y-78034380D01*
X135143619Y-77034380D01*
X134238857Y-78034380D02*
X134810285Y-78034380D01*
X134524571Y-78034380D02*
X134524571Y-77034380D01*
X134619809Y-77177238D01*
X134715047Y-77272476D01*
X134810285Y-77320095D01*
X133381714Y-77367714D02*
X133381714Y-78034380D01*
X133619809Y-76986761D02*
X133857904Y-77701047D01*
X133238857Y-77701047D01*
%TO.C,SW15*%
X154905523Y-65978761D02*
X154762666Y-66026380D01*
X154524571Y-66026380D01*
X154429333Y-65978761D01*
X154381714Y-65931142D01*
X154334095Y-65835904D01*
X154334095Y-65740666D01*
X154381714Y-65645428D01*
X154429333Y-65597809D01*
X154524571Y-65550190D01*
X154715047Y-65502571D01*
X154810285Y-65454952D01*
X154857904Y-65407333D01*
X154905523Y-65312095D01*
X154905523Y-65216857D01*
X154857904Y-65121619D01*
X154810285Y-65074000D01*
X154715047Y-65026380D01*
X154476952Y-65026380D01*
X154334095Y-65074000D01*
X154000761Y-65026380D02*
X153762666Y-66026380D01*
X153572190Y-65312095D01*
X153381714Y-66026380D01*
X153143619Y-65026380D01*
X152238857Y-66026380D02*
X152810285Y-66026380D01*
X152524571Y-66026380D02*
X152524571Y-65026380D01*
X152619809Y-65169238D01*
X152715047Y-65264476D01*
X152810285Y-65312095D01*
X151334095Y-65026380D02*
X151810285Y-65026380D01*
X151857904Y-65502571D01*
X151810285Y-65454952D01*
X151715047Y-65407333D01*
X151476952Y-65407333D01*
X151381714Y-65454952D01*
X151334095Y-65502571D01*
X151286476Y-65597809D01*
X151286476Y-65835904D01*
X151334095Y-65931142D01*
X151381714Y-65978761D01*
X151476952Y-66026380D01*
X151715047Y-66026380D01*
X151810285Y-65978761D01*
X151857904Y-65931142D01*
%TO.C,SW16*%
X172905523Y-59120761D02*
X172762666Y-59168380D01*
X172524571Y-59168380D01*
X172429333Y-59120761D01*
X172381714Y-59073142D01*
X172334095Y-58977904D01*
X172334095Y-58882666D01*
X172381714Y-58787428D01*
X172429333Y-58739809D01*
X172524571Y-58692190D01*
X172715047Y-58644571D01*
X172810285Y-58596952D01*
X172857904Y-58549333D01*
X172905523Y-58454095D01*
X172905523Y-58358857D01*
X172857904Y-58263619D01*
X172810285Y-58216000D01*
X172715047Y-58168380D01*
X172476952Y-58168380D01*
X172334095Y-58216000D01*
X172000761Y-58168380D02*
X171762666Y-59168380D01*
X171572190Y-58454095D01*
X171381714Y-59168380D01*
X171143619Y-58168380D01*
X170238857Y-59168380D02*
X170810285Y-59168380D01*
X170524571Y-59168380D02*
X170524571Y-58168380D01*
X170619809Y-58311238D01*
X170715047Y-58406476D01*
X170810285Y-58454095D01*
X169381714Y-58168380D02*
X169572190Y-58168380D01*
X169667428Y-58216000D01*
X169715047Y-58263619D01*
X169810285Y-58406476D01*
X169857904Y-58596952D01*
X169857904Y-58977904D01*
X169810285Y-59073142D01*
X169762666Y-59120761D01*
X169667428Y-59168380D01*
X169476952Y-59168380D01*
X169381714Y-59120761D01*
X169334095Y-59073142D01*
X169286476Y-58977904D01*
X169286476Y-58739809D01*
X169334095Y-58644571D01*
X169381714Y-58596952D01*
X169476952Y-58549333D01*
X169667428Y-58549333D01*
X169762666Y-58596952D01*
X169810285Y-58644571D01*
X169857904Y-58739809D01*
%TO.C,SW17*%
X190905523Y-64454761D02*
X190762666Y-64502380D01*
X190524571Y-64502380D01*
X190429333Y-64454761D01*
X190381714Y-64407142D01*
X190334095Y-64311904D01*
X190334095Y-64216666D01*
X190381714Y-64121428D01*
X190429333Y-64073809D01*
X190524571Y-64026190D01*
X190715047Y-63978571D01*
X190810285Y-63930952D01*
X190857904Y-63883333D01*
X190905523Y-63788095D01*
X190905523Y-63692857D01*
X190857904Y-63597619D01*
X190810285Y-63550000D01*
X190715047Y-63502380D01*
X190476952Y-63502380D01*
X190334095Y-63550000D01*
X190000761Y-63502380D02*
X189762666Y-64502380D01*
X189572190Y-63788095D01*
X189381714Y-64502380D01*
X189143619Y-63502380D01*
X188238857Y-64502380D02*
X188810285Y-64502380D01*
X188524571Y-64502380D02*
X188524571Y-63502380D01*
X188619809Y-63645238D01*
X188715047Y-63740476D01*
X188810285Y-63788095D01*
X187905523Y-63502380D02*
X187238857Y-63502380D01*
X187667428Y-64502380D01*
%TO.C,SW18*%
X208885523Y-66994761D02*
X208742666Y-67042380D01*
X208504571Y-67042380D01*
X208409333Y-66994761D01*
X208361714Y-66947142D01*
X208314095Y-66851904D01*
X208314095Y-66756666D01*
X208361714Y-66661428D01*
X208409333Y-66613809D01*
X208504571Y-66566190D01*
X208695047Y-66518571D01*
X208790285Y-66470952D01*
X208837904Y-66423333D01*
X208885523Y-66328095D01*
X208885523Y-66232857D01*
X208837904Y-66137619D01*
X208790285Y-66090000D01*
X208695047Y-66042380D01*
X208456952Y-66042380D01*
X208314095Y-66090000D01*
X207980761Y-66042380D02*
X207742666Y-67042380D01*
X207552190Y-66328095D01*
X207361714Y-67042380D01*
X207123619Y-66042380D01*
X206218857Y-67042380D02*
X206790285Y-67042380D01*
X206504571Y-67042380D02*
X206504571Y-66042380D01*
X206599809Y-66185238D01*
X206695047Y-66280476D01*
X206790285Y-66328095D01*
X205647428Y-66470952D02*
X205742666Y-66423333D01*
X205790285Y-66375714D01*
X205837904Y-66280476D01*
X205837904Y-66232857D01*
X205790285Y-66137619D01*
X205742666Y-66090000D01*
X205647428Y-66042380D01*
X205456952Y-66042380D01*
X205361714Y-66090000D01*
X205314095Y-66137619D01*
X205266476Y-66232857D01*
X205266476Y-66280476D01*
X205314095Y-66375714D01*
X205361714Y-66423333D01*
X205456952Y-66470952D01*
X205647428Y-66470952D01*
X205742666Y-66518571D01*
X205790285Y-66566190D01*
X205837904Y-66661428D01*
X205837904Y-66851904D01*
X205790285Y-66947142D01*
X205742666Y-66994761D01*
X205647428Y-67042380D01*
X205456952Y-67042380D01*
X205361714Y-66994761D01*
X205314095Y-66947142D01*
X205266476Y-66851904D01*
X205266476Y-66661428D01*
X205314095Y-66566190D01*
X205361714Y-66518571D01*
X205456952Y-66470952D01*
%TO.C,SW20*%
X222243568Y-104229651D02*
X222391095Y-104259840D01*
X222597292Y-104378887D01*
X222655961Y-104467746D01*
X222673391Y-104532795D01*
X222667011Y-104639083D01*
X222619392Y-104721561D01*
X222530534Y-104780230D01*
X222465485Y-104797660D01*
X222359197Y-104791280D01*
X222170430Y-104737282D01*
X222064142Y-104730902D01*
X221999093Y-104748332D01*
X221910235Y-104807001D01*
X221862615Y-104889479D01*
X221856236Y-104995768D01*
X221873666Y-105060816D01*
X221932335Y-105149675D01*
X222138531Y-105268722D01*
X222286059Y-105298912D01*
X222550924Y-105506818D02*
X223257121Y-104759840D01*
X223064935Y-105473667D01*
X223587035Y-104950316D01*
X223293232Y-105935389D01*
X223629526Y-106019577D02*
X223646956Y-106084626D01*
X223705625Y-106173484D01*
X223911821Y-106292532D01*
X224018109Y-106298912D01*
X224083158Y-106281482D01*
X224172017Y-106222813D01*
X224219636Y-106140334D01*
X224249825Y-105992807D01*
X224040668Y-105212221D01*
X224576778Y-105521745D01*
X224612889Y-106697294D02*
X224695368Y-106744913D01*
X224801656Y-106751293D01*
X224866705Y-106733863D01*
X224955563Y-106675194D01*
X225092041Y-106534046D01*
X225211088Y-106327849D01*
X225265087Y-106139083D01*
X225271467Y-106032795D01*
X225254037Y-105967746D01*
X225195368Y-105878887D01*
X225112889Y-105831268D01*
X225006601Y-105824889D01*
X224941552Y-105842318D01*
X224852694Y-105900987D01*
X224716217Y-106042135D01*
X224597169Y-106248332D01*
X224543170Y-106437098D01*
X224536791Y-106543387D01*
X224554220Y-106608435D01*
X224612889Y-106697294D01*
%TO.C,SW21*%
X205279550Y-96057038D02*
X205429864Y-96048016D01*
X205659846Y-96109640D01*
X205739514Y-96180285D01*
X205773186Y-96238607D01*
X205794533Y-96342924D01*
X205769884Y-96434917D01*
X205699238Y-96514585D01*
X205640917Y-96548257D01*
X205536599Y-96569604D01*
X205340289Y-96566302D01*
X205235971Y-96587649D01*
X205177650Y-96621321D01*
X205107004Y-96700989D01*
X205082354Y-96792982D01*
X205103701Y-96897299D01*
X205137373Y-96955621D01*
X205217041Y-97026267D01*
X205447024Y-97087890D01*
X205597338Y-97078868D01*
X205906988Y-97211137D02*
X206395790Y-96306835D01*
X206394905Y-97046081D01*
X206763761Y-96405433D01*
X206734925Y-97432982D01*
X207081550Y-97427262D02*
X207115221Y-97485583D01*
X207194889Y-97556229D01*
X207424872Y-97617853D01*
X207529189Y-97596506D01*
X207587511Y-97562834D01*
X207658157Y-97483166D01*
X207682806Y-97391173D01*
X207673784Y-97240859D01*
X207269723Y-96541005D01*
X207867677Y-96701226D01*
X208787606Y-96947720D02*
X208235648Y-96799824D01*
X208511627Y-96873772D02*
X208252808Y-97839698D01*
X208197789Y-97677059D01*
X208130446Y-97560417D01*
X208050778Y-97489771D01*
%TO.C,SW11_r1*%
X64916190Y-47436761D02*
X64773333Y-47484380D01*
X64535238Y-47484380D01*
X64440000Y-47436761D01*
X64392380Y-47389142D01*
X64344761Y-47293904D01*
X64344761Y-47198666D01*
X64392380Y-47103428D01*
X64440000Y-47055809D01*
X64535238Y-47008190D01*
X64725714Y-46960571D01*
X64820952Y-46912952D01*
X64868571Y-46865333D01*
X64916190Y-46770095D01*
X64916190Y-46674857D01*
X64868571Y-46579619D01*
X64820952Y-46532000D01*
X64725714Y-46484380D01*
X64487619Y-46484380D01*
X64344761Y-46532000D01*
X64011428Y-46484380D02*
X63773333Y-47484380D01*
X63582857Y-46770095D01*
X63392380Y-47484380D01*
X63154285Y-46484380D01*
X62249523Y-47484380D02*
X62820952Y-47484380D01*
X62535238Y-47484380D02*
X62535238Y-46484380D01*
X62630476Y-46627238D01*
X62725714Y-46722476D01*
X62820952Y-46770095D01*
X61297142Y-47484380D02*
X61868571Y-47484380D01*
X61582857Y-47484380D02*
X61582857Y-46484380D01*
X61678095Y-46627238D01*
X61773333Y-46722476D01*
X61868571Y-46770095D01*
X61106666Y-47579619D02*
X60344761Y-47579619D01*
X60106666Y-47484380D02*
X60106666Y-46817714D01*
X60106666Y-47008190D02*
X60059047Y-46912952D01*
X60011428Y-46865333D01*
X59916190Y-46817714D01*
X59820952Y-46817714D01*
X58963809Y-47484380D02*
X59535238Y-47484380D01*
X59249523Y-47484380D02*
X59249523Y-46484380D01*
X59344761Y-46627238D01*
X59440000Y-46722476D01*
X59535238Y-46770095D01*
%TO.C,SW12_r1*%
X46902190Y-49976761D02*
X46759333Y-50024380D01*
X46521238Y-50024380D01*
X46426000Y-49976761D01*
X46378380Y-49929142D01*
X46330761Y-49833904D01*
X46330761Y-49738666D01*
X46378380Y-49643428D01*
X46426000Y-49595809D01*
X46521238Y-49548190D01*
X46711714Y-49500571D01*
X46806952Y-49452952D01*
X46854571Y-49405333D01*
X46902190Y-49310095D01*
X46902190Y-49214857D01*
X46854571Y-49119619D01*
X46806952Y-49072000D01*
X46711714Y-49024380D01*
X46473619Y-49024380D01*
X46330761Y-49072000D01*
X45997428Y-49024380D02*
X45759333Y-50024380D01*
X45568857Y-49310095D01*
X45378380Y-50024380D01*
X45140285Y-49024380D01*
X44235523Y-50024380D02*
X44806952Y-50024380D01*
X44521238Y-50024380D02*
X44521238Y-49024380D01*
X44616476Y-49167238D01*
X44711714Y-49262476D01*
X44806952Y-49310095D01*
X43854571Y-49119619D02*
X43806952Y-49072000D01*
X43711714Y-49024380D01*
X43473619Y-49024380D01*
X43378380Y-49072000D01*
X43330761Y-49119619D01*
X43283142Y-49214857D01*
X43283142Y-49310095D01*
X43330761Y-49452952D01*
X43902190Y-50024380D01*
X43283142Y-50024380D01*
X43092666Y-50119619D02*
X42330761Y-50119619D01*
X42092666Y-50024380D02*
X42092666Y-49357714D01*
X42092666Y-49548190D02*
X42045047Y-49452952D01*
X41997428Y-49405333D01*
X41902190Y-49357714D01*
X41806952Y-49357714D01*
X40949809Y-50024380D02*
X41521238Y-50024380D01*
X41235523Y-50024380D02*
X41235523Y-49024380D01*
X41330761Y-49167238D01*
X41426000Y-49262476D01*
X41521238Y-49310095D01*
%TO.C,SW13_r1*%
X118948190Y-77986761D02*
X118805333Y-78034380D01*
X118567238Y-78034380D01*
X118472000Y-77986761D01*
X118424380Y-77939142D01*
X118376761Y-77843904D01*
X118376761Y-77748666D01*
X118424380Y-77653428D01*
X118472000Y-77605809D01*
X118567238Y-77558190D01*
X118757714Y-77510571D01*
X118852952Y-77462952D01*
X118900571Y-77415333D01*
X118948190Y-77320095D01*
X118948190Y-77224857D01*
X118900571Y-77129619D01*
X118852952Y-77082000D01*
X118757714Y-77034380D01*
X118519619Y-77034380D01*
X118376761Y-77082000D01*
X118043428Y-77034380D02*
X117805333Y-78034380D01*
X117614857Y-77320095D01*
X117424380Y-78034380D01*
X117186285Y-77034380D01*
X116281523Y-78034380D02*
X116852952Y-78034380D01*
X116567238Y-78034380D02*
X116567238Y-77034380D01*
X116662476Y-77177238D01*
X116757714Y-77272476D01*
X116852952Y-77320095D01*
X115948190Y-77034380D02*
X115329142Y-77034380D01*
X115662476Y-77415333D01*
X115519619Y-77415333D01*
X115424380Y-77462952D01*
X115376761Y-77510571D01*
X115329142Y-77605809D01*
X115329142Y-77843904D01*
X115376761Y-77939142D01*
X115424380Y-77986761D01*
X115519619Y-78034380D01*
X115805333Y-78034380D01*
X115900571Y-77986761D01*
X115948190Y-77939142D01*
X115138666Y-78129619D02*
X114376761Y-78129619D01*
X114138666Y-78034380D02*
X114138666Y-77367714D01*
X114138666Y-77558190D02*
X114091047Y-77462952D01*
X114043428Y-77415333D01*
X113948190Y-77367714D01*
X113852952Y-77367714D01*
X112995809Y-78034380D02*
X113567238Y-78034380D01*
X113281523Y-78034380D02*
X113281523Y-77034380D01*
X113376761Y-77177238D01*
X113472000Y-77272476D01*
X113567238Y-77320095D01*
%TO.C,SW15_r1*%
X82904190Y-59120761D02*
X82761333Y-59168380D01*
X82523238Y-59168380D01*
X82428000Y-59120761D01*
X82380380Y-59073142D01*
X82332761Y-58977904D01*
X82332761Y-58882666D01*
X82380380Y-58787428D01*
X82428000Y-58739809D01*
X82523238Y-58692190D01*
X82713714Y-58644571D01*
X82808952Y-58596952D01*
X82856571Y-58549333D01*
X82904190Y-58454095D01*
X82904190Y-58358857D01*
X82856571Y-58263619D01*
X82808952Y-58216000D01*
X82713714Y-58168380D01*
X82475619Y-58168380D01*
X82332761Y-58216000D01*
X81999428Y-58168380D02*
X81761333Y-59168380D01*
X81570857Y-58454095D01*
X81380380Y-59168380D01*
X81142285Y-58168380D01*
X80237523Y-59168380D02*
X80808952Y-59168380D01*
X80523238Y-59168380D02*
X80523238Y-58168380D01*
X80618476Y-58311238D01*
X80713714Y-58406476D01*
X80808952Y-58454095D01*
X79332761Y-58168380D02*
X79808952Y-58168380D01*
X79856571Y-58644571D01*
X79808952Y-58596952D01*
X79713714Y-58549333D01*
X79475619Y-58549333D01*
X79380380Y-58596952D01*
X79332761Y-58644571D01*
X79285142Y-58739809D01*
X79285142Y-58977904D01*
X79332761Y-59073142D01*
X79380380Y-59120761D01*
X79475619Y-59168380D01*
X79713714Y-59168380D01*
X79808952Y-59120761D01*
X79856571Y-59073142D01*
X79094666Y-59263619D02*
X78332761Y-59263619D01*
X78094666Y-59168380D02*
X78094666Y-58501714D01*
X78094666Y-58692190D02*
X78047047Y-58596952D01*
X77999428Y-58549333D01*
X77904190Y-58501714D01*
X77808952Y-58501714D01*
X76951809Y-59168380D02*
X77523238Y-59168380D01*
X77237523Y-59168380D02*
X77237523Y-58168380D01*
X77332761Y-58311238D01*
X77428000Y-58406476D01*
X77523238Y-58454095D01*
%TO.C,SW16_r1*%
X64916190Y-64454761D02*
X64773333Y-64502380D01*
X64535238Y-64502380D01*
X64440000Y-64454761D01*
X64392380Y-64407142D01*
X64344761Y-64311904D01*
X64344761Y-64216666D01*
X64392380Y-64121428D01*
X64440000Y-64073809D01*
X64535238Y-64026190D01*
X64725714Y-63978571D01*
X64820952Y-63930952D01*
X64868571Y-63883333D01*
X64916190Y-63788095D01*
X64916190Y-63692857D01*
X64868571Y-63597619D01*
X64820952Y-63550000D01*
X64725714Y-63502380D01*
X64487619Y-63502380D01*
X64344761Y-63550000D01*
X64011428Y-63502380D02*
X63773333Y-64502380D01*
X63582857Y-63788095D01*
X63392380Y-64502380D01*
X63154285Y-63502380D01*
X62249523Y-64502380D02*
X62820952Y-64502380D01*
X62535238Y-64502380D02*
X62535238Y-63502380D01*
X62630476Y-63645238D01*
X62725714Y-63740476D01*
X62820952Y-63788095D01*
X61392380Y-63502380D02*
X61582857Y-63502380D01*
X61678095Y-63550000D01*
X61725714Y-63597619D01*
X61820952Y-63740476D01*
X61868571Y-63930952D01*
X61868571Y-64311904D01*
X61820952Y-64407142D01*
X61773333Y-64454761D01*
X61678095Y-64502380D01*
X61487619Y-64502380D01*
X61392380Y-64454761D01*
X61344761Y-64407142D01*
X61297142Y-64311904D01*
X61297142Y-64073809D01*
X61344761Y-63978571D01*
X61392380Y-63930952D01*
X61487619Y-63883333D01*
X61678095Y-63883333D01*
X61773333Y-63930952D01*
X61820952Y-63978571D01*
X61868571Y-64073809D01*
X61106666Y-64597619D02*
X60344761Y-64597619D01*
X60106666Y-64502380D02*
X60106666Y-63835714D01*
X60106666Y-64026190D02*
X60059047Y-63930952D01*
X60011428Y-63883333D01*
X59916190Y-63835714D01*
X59820952Y-63835714D01*
X58963809Y-64502380D02*
X59535238Y-64502380D01*
X59249523Y-64502380D02*
X59249523Y-63502380D01*
X59344761Y-63645238D01*
X59440000Y-63740476D01*
X59535238Y-63788095D01*
%TO.C,SW17_r1*%
X46902190Y-66994761D02*
X46759333Y-67042380D01*
X46521238Y-67042380D01*
X46426000Y-66994761D01*
X46378380Y-66947142D01*
X46330761Y-66851904D01*
X46330761Y-66756666D01*
X46378380Y-66661428D01*
X46426000Y-66613809D01*
X46521238Y-66566190D01*
X46711714Y-66518571D01*
X46806952Y-66470952D01*
X46854571Y-66423333D01*
X46902190Y-66328095D01*
X46902190Y-66232857D01*
X46854571Y-66137619D01*
X46806952Y-66090000D01*
X46711714Y-66042380D01*
X46473619Y-66042380D01*
X46330761Y-66090000D01*
X45997428Y-66042380D02*
X45759333Y-67042380D01*
X45568857Y-66328095D01*
X45378380Y-67042380D01*
X45140285Y-66042380D01*
X44235523Y-67042380D02*
X44806952Y-67042380D01*
X44521238Y-67042380D02*
X44521238Y-66042380D01*
X44616476Y-66185238D01*
X44711714Y-66280476D01*
X44806952Y-66328095D01*
X43902190Y-66042380D02*
X43235523Y-66042380D01*
X43664095Y-67042380D01*
X43092666Y-67137619D02*
X42330761Y-67137619D01*
X42092666Y-67042380D02*
X42092666Y-66375714D01*
X42092666Y-66566190D02*
X42045047Y-66470952D01*
X41997428Y-66423333D01*
X41902190Y-66375714D01*
X41806952Y-66375714D01*
X40949809Y-67042380D02*
X41521238Y-67042380D01*
X41235523Y-67042380D02*
X41235523Y-66042380D01*
X41330761Y-66185238D01*
X41426000Y-66280476D01*
X41521238Y-66328095D01*
%TO.C,SW18_r1*%
X100930190Y-65978761D02*
X100787333Y-66026380D01*
X100549238Y-66026380D01*
X100454000Y-65978761D01*
X100406380Y-65931142D01*
X100358761Y-65835904D01*
X100358761Y-65740666D01*
X100406380Y-65645428D01*
X100454000Y-65597809D01*
X100549238Y-65550190D01*
X100739714Y-65502571D01*
X100834952Y-65454952D01*
X100882571Y-65407333D01*
X100930190Y-65312095D01*
X100930190Y-65216857D01*
X100882571Y-65121619D01*
X100834952Y-65074000D01*
X100739714Y-65026380D01*
X100501619Y-65026380D01*
X100358761Y-65074000D01*
X100025428Y-65026380D02*
X99787333Y-66026380D01*
X99596857Y-65312095D01*
X99406380Y-66026380D01*
X99168285Y-65026380D01*
X98263523Y-66026380D02*
X98834952Y-66026380D01*
X98549238Y-66026380D02*
X98549238Y-65026380D01*
X98644476Y-65169238D01*
X98739714Y-65264476D01*
X98834952Y-65312095D01*
X97692095Y-65454952D02*
X97787333Y-65407333D01*
X97834952Y-65359714D01*
X97882571Y-65264476D01*
X97882571Y-65216857D01*
X97834952Y-65121619D01*
X97787333Y-65074000D01*
X97692095Y-65026380D01*
X97501619Y-65026380D01*
X97406380Y-65074000D01*
X97358761Y-65121619D01*
X97311142Y-65216857D01*
X97311142Y-65264476D01*
X97358761Y-65359714D01*
X97406380Y-65407333D01*
X97501619Y-65454952D01*
X97692095Y-65454952D01*
X97787333Y-65502571D01*
X97834952Y-65550190D01*
X97882571Y-65645428D01*
X97882571Y-65835904D01*
X97834952Y-65931142D01*
X97787333Y-65978761D01*
X97692095Y-66026380D01*
X97501619Y-66026380D01*
X97406380Y-65978761D01*
X97358761Y-65931142D01*
X97311142Y-65835904D01*
X97311142Y-65645428D01*
X97358761Y-65550190D01*
X97406380Y-65502571D01*
X97501619Y-65454952D01*
X97120666Y-66121619D02*
X96358761Y-66121619D01*
X96120666Y-66026380D02*
X96120666Y-65359714D01*
X96120666Y-65550190D02*
X96073047Y-65454952D01*
X96025428Y-65407333D01*
X95930190Y-65359714D01*
X95834952Y-65359714D01*
X94977809Y-66026380D02*
X95549238Y-66026380D01*
X95263523Y-66026380D02*
X95263523Y-65026380D01*
X95358761Y-65169238D01*
X95454000Y-65264476D01*
X95549238Y-65312095D01*
%TO.C,SW2_r1*%
X118472000Y-43986761D02*
X118329142Y-44034380D01*
X118091047Y-44034380D01*
X117995809Y-43986761D01*
X117948190Y-43939142D01*
X117900571Y-43843904D01*
X117900571Y-43748666D01*
X117948190Y-43653428D01*
X117995809Y-43605809D01*
X118091047Y-43558190D01*
X118281523Y-43510571D01*
X118376761Y-43462952D01*
X118424380Y-43415333D01*
X118472000Y-43320095D01*
X118472000Y-43224857D01*
X118424380Y-43129619D01*
X118376761Y-43082000D01*
X118281523Y-43034380D01*
X118043428Y-43034380D01*
X117900571Y-43082000D01*
X117567238Y-43034380D02*
X117329142Y-44034380D01*
X117138666Y-43320095D01*
X116948190Y-44034380D01*
X116710095Y-43034380D01*
X116376761Y-43129619D02*
X116329142Y-43082000D01*
X116233904Y-43034380D01*
X115995809Y-43034380D01*
X115900571Y-43082000D01*
X115852952Y-43129619D01*
X115805333Y-43224857D01*
X115805333Y-43320095D01*
X115852952Y-43462952D01*
X116424380Y-44034380D01*
X115805333Y-44034380D01*
X115614857Y-44129619D02*
X114852952Y-44129619D01*
X114614857Y-44034380D02*
X114614857Y-43367714D01*
X114614857Y-43558190D02*
X114567238Y-43462952D01*
X114519619Y-43415333D01*
X114424380Y-43367714D01*
X114329142Y-43367714D01*
X113472000Y-44034380D02*
X114043428Y-44034380D01*
X113757714Y-44034380D02*
X113757714Y-43034380D01*
X113852952Y-43177238D01*
X113948190Y-43272476D01*
X114043428Y-43320095D01*
%TO.C,SW3_r1*%
X100454000Y-31986761D02*
X100311142Y-32034380D01*
X100073047Y-32034380D01*
X99977809Y-31986761D01*
X99930190Y-31939142D01*
X99882571Y-31843904D01*
X99882571Y-31748666D01*
X99930190Y-31653428D01*
X99977809Y-31605809D01*
X100073047Y-31558190D01*
X100263523Y-31510571D01*
X100358761Y-31462952D01*
X100406380Y-31415333D01*
X100454000Y-31320095D01*
X100454000Y-31224857D01*
X100406380Y-31129619D01*
X100358761Y-31082000D01*
X100263523Y-31034380D01*
X100025428Y-31034380D01*
X99882571Y-31082000D01*
X99549238Y-31034380D02*
X99311142Y-32034380D01*
X99120666Y-31320095D01*
X98930190Y-32034380D01*
X98692095Y-31034380D01*
X98406380Y-31034380D02*
X97787333Y-31034380D01*
X98120666Y-31415333D01*
X97977809Y-31415333D01*
X97882571Y-31462952D01*
X97834952Y-31510571D01*
X97787333Y-31605809D01*
X97787333Y-31843904D01*
X97834952Y-31939142D01*
X97882571Y-31986761D01*
X97977809Y-32034380D01*
X98263523Y-32034380D01*
X98358761Y-31986761D01*
X98406380Y-31939142D01*
X97596857Y-32129619D02*
X96834952Y-32129619D01*
X96596857Y-32034380D02*
X96596857Y-31367714D01*
X96596857Y-31558190D02*
X96549238Y-31462952D01*
X96501619Y-31415333D01*
X96406380Y-31367714D01*
X96311142Y-31367714D01*
X95454000Y-32034380D02*
X96025428Y-32034380D01*
X95739714Y-32034380D02*
X95739714Y-31034380D01*
X95834952Y-31177238D01*
X95930190Y-31272476D01*
X96025428Y-31320095D01*
%TO.C,SW4_r1*%
X82428000Y-24986761D02*
X82285142Y-25034380D01*
X82047047Y-25034380D01*
X81951809Y-24986761D01*
X81904190Y-24939142D01*
X81856571Y-24843904D01*
X81856571Y-24748666D01*
X81904190Y-24653428D01*
X81951809Y-24605809D01*
X82047047Y-24558190D01*
X82237523Y-24510571D01*
X82332761Y-24462952D01*
X82380380Y-24415333D01*
X82428000Y-24320095D01*
X82428000Y-24224857D01*
X82380380Y-24129619D01*
X82332761Y-24082000D01*
X82237523Y-24034380D01*
X81999428Y-24034380D01*
X81856571Y-24082000D01*
X81523238Y-24034380D02*
X81285142Y-25034380D01*
X81094666Y-24320095D01*
X80904190Y-25034380D01*
X80666095Y-24034380D01*
X79856571Y-24367714D02*
X79856571Y-25034380D01*
X80094666Y-23986761D02*
X80332761Y-24701047D01*
X79713714Y-24701047D01*
X79570857Y-25129619D02*
X78808952Y-25129619D01*
X78570857Y-25034380D02*
X78570857Y-24367714D01*
X78570857Y-24558190D02*
X78523238Y-24462952D01*
X78475619Y-24415333D01*
X78380380Y-24367714D01*
X78285142Y-24367714D01*
X77428000Y-25034380D02*
X77999428Y-25034380D01*
X77713714Y-25034380D02*
X77713714Y-24034380D01*
X77808952Y-24177238D01*
X77904190Y-24272476D01*
X77999428Y-24320095D01*
%TO.C,SW5_r1*%
X64440000Y-30486761D02*
X64297142Y-30534380D01*
X64059047Y-30534380D01*
X63963809Y-30486761D01*
X63916190Y-30439142D01*
X63868571Y-30343904D01*
X63868571Y-30248666D01*
X63916190Y-30153428D01*
X63963809Y-30105809D01*
X64059047Y-30058190D01*
X64249523Y-30010571D01*
X64344761Y-29962952D01*
X64392380Y-29915333D01*
X64440000Y-29820095D01*
X64440000Y-29724857D01*
X64392380Y-29629619D01*
X64344761Y-29582000D01*
X64249523Y-29534380D01*
X64011428Y-29534380D01*
X63868571Y-29582000D01*
X63535238Y-29534380D02*
X63297142Y-30534380D01*
X63106666Y-29820095D01*
X62916190Y-30534380D01*
X62678095Y-29534380D01*
X61820952Y-29534380D02*
X62297142Y-29534380D01*
X62344761Y-30010571D01*
X62297142Y-29962952D01*
X62201904Y-29915333D01*
X61963809Y-29915333D01*
X61868571Y-29962952D01*
X61820952Y-30010571D01*
X61773333Y-30105809D01*
X61773333Y-30343904D01*
X61820952Y-30439142D01*
X61868571Y-30486761D01*
X61963809Y-30534380D01*
X62201904Y-30534380D01*
X62297142Y-30486761D01*
X62344761Y-30439142D01*
X61582857Y-30629619D02*
X60820952Y-30629619D01*
X60582857Y-30534380D02*
X60582857Y-29867714D01*
X60582857Y-30058190D02*
X60535238Y-29962952D01*
X60487619Y-29915333D01*
X60392380Y-29867714D01*
X60297142Y-29867714D01*
X59440000Y-30534380D02*
X60011428Y-30534380D01*
X59725714Y-30534380D02*
X59725714Y-29534380D01*
X59820952Y-29677238D01*
X59916190Y-29772476D01*
X60011428Y-29820095D01*
%TO.C,SW6_r1*%
X46426000Y-32986761D02*
X46283142Y-33034380D01*
X46045047Y-33034380D01*
X45949809Y-32986761D01*
X45902190Y-32939142D01*
X45854571Y-32843904D01*
X45854571Y-32748666D01*
X45902190Y-32653428D01*
X45949809Y-32605809D01*
X46045047Y-32558190D01*
X46235523Y-32510571D01*
X46330761Y-32462952D01*
X46378380Y-32415333D01*
X46426000Y-32320095D01*
X46426000Y-32224857D01*
X46378380Y-32129619D01*
X46330761Y-32082000D01*
X46235523Y-32034380D01*
X45997428Y-32034380D01*
X45854571Y-32082000D01*
X45521238Y-32034380D02*
X45283142Y-33034380D01*
X45092666Y-32320095D01*
X44902190Y-33034380D01*
X44664095Y-32034380D01*
X43854571Y-32034380D02*
X44045047Y-32034380D01*
X44140285Y-32082000D01*
X44187904Y-32129619D01*
X44283142Y-32272476D01*
X44330761Y-32462952D01*
X44330761Y-32843904D01*
X44283142Y-32939142D01*
X44235523Y-32986761D01*
X44140285Y-33034380D01*
X43949809Y-33034380D01*
X43854571Y-32986761D01*
X43806952Y-32939142D01*
X43759333Y-32843904D01*
X43759333Y-32605809D01*
X43806952Y-32510571D01*
X43854571Y-32462952D01*
X43949809Y-32415333D01*
X44140285Y-32415333D01*
X44235523Y-32462952D01*
X44283142Y-32510571D01*
X44330761Y-32605809D01*
X43568857Y-33129619D02*
X42806952Y-33129619D01*
X42568857Y-33034380D02*
X42568857Y-32367714D01*
X42568857Y-32558190D02*
X42521238Y-32462952D01*
X42473619Y-32415333D01*
X42378380Y-32367714D01*
X42283142Y-32367714D01*
X41426000Y-33034380D02*
X41997428Y-33034380D01*
X41711714Y-33034380D02*
X41711714Y-32034380D01*
X41806952Y-32177238D01*
X41902190Y-32272476D01*
X41997428Y-32320095D01*
%TO.C,SW7_r1*%
X118472000Y-60986761D02*
X118329142Y-61034380D01*
X118091047Y-61034380D01*
X117995809Y-60986761D01*
X117948190Y-60939142D01*
X117900571Y-60843904D01*
X117900571Y-60748666D01*
X117948190Y-60653428D01*
X117995809Y-60605809D01*
X118091047Y-60558190D01*
X118281523Y-60510571D01*
X118376761Y-60462952D01*
X118424380Y-60415333D01*
X118472000Y-60320095D01*
X118472000Y-60224857D01*
X118424380Y-60129619D01*
X118376761Y-60082000D01*
X118281523Y-60034380D01*
X118043428Y-60034380D01*
X117900571Y-60082000D01*
X117567238Y-60034380D02*
X117329142Y-61034380D01*
X117138666Y-60320095D01*
X116948190Y-61034380D01*
X116710095Y-60034380D01*
X116424380Y-60034380D02*
X115757714Y-60034380D01*
X116186285Y-61034380D01*
X115614857Y-61129619D02*
X114852952Y-61129619D01*
X114614857Y-61034380D02*
X114614857Y-60367714D01*
X114614857Y-60558190D02*
X114567238Y-60462952D01*
X114519619Y-60415333D01*
X114424380Y-60367714D01*
X114329142Y-60367714D01*
X113472000Y-61034380D02*
X114043428Y-61034380D01*
X113757714Y-61034380D02*
X113757714Y-60034380D01*
X113852952Y-60177238D01*
X113948190Y-60272476D01*
X114043428Y-60320095D01*
%TO.C,SW8_r1*%
X100454000Y-48960761D02*
X100311142Y-49008380D01*
X100073047Y-49008380D01*
X99977809Y-48960761D01*
X99930190Y-48913142D01*
X99882571Y-48817904D01*
X99882571Y-48722666D01*
X99930190Y-48627428D01*
X99977809Y-48579809D01*
X100073047Y-48532190D01*
X100263523Y-48484571D01*
X100358761Y-48436952D01*
X100406380Y-48389333D01*
X100454000Y-48294095D01*
X100454000Y-48198857D01*
X100406380Y-48103619D01*
X100358761Y-48056000D01*
X100263523Y-48008380D01*
X100025428Y-48008380D01*
X99882571Y-48056000D01*
X99549238Y-48008380D02*
X99311142Y-49008380D01*
X99120666Y-48294095D01*
X98930190Y-49008380D01*
X98692095Y-48008380D01*
X98168285Y-48436952D02*
X98263523Y-48389333D01*
X98311142Y-48341714D01*
X98358761Y-48246476D01*
X98358761Y-48198857D01*
X98311142Y-48103619D01*
X98263523Y-48056000D01*
X98168285Y-48008380D01*
X97977809Y-48008380D01*
X97882571Y-48056000D01*
X97834952Y-48103619D01*
X97787333Y-48198857D01*
X97787333Y-48246476D01*
X97834952Y-48341714D01*
X97882571Y-48389333D01*
X97977809Y-48436952D01*
X98168285Y-48436952D01*
X98263523Y-48484571D01*
X98311142Y-48532190D01*
X98358761Y-48627428D01*
X98358761Y-48817904D01*
X98311142Y-48913142D01*
X98263523Y-48960761D01*
X98168285Y-49008380D01*
X97977809Y-49008380D01*
X97882571Y-48960761D01*
X97834952Y-48913142D01*
X97787333Y-48817904D01*
X97787333Y-48627428D01*
X97834952Y-48532190D01*
X97882571Y-48484571D01*
X97977809Y-48436952D01*
X97596857Y-49103619D02*
X96834952Y-49103619D01*
X96596857Y-49008380D02*
X96596857Y-48341714D01*
X96596857Y-48532190D02*
X96549238Y-48436952D01*
X96501619Y-48389333D01*
X96406380Y-48341714D01*
X96311142Y-48341714D01*
X95454000Y-49008380D02*
X96025428Y-49008380D01*
X95739714Y-49008380D02*
X95739714Y-48008380D01*
X95834952Y-48151238D01*
X95930190Y-48246476D01*
X96025428Y-48294095D01*
%TO.C,SW9_r1*%
X82428000Y-42102761D02*
X82285142Y-42150380D01*
X82047047Y-42150380D01*
X81951809Y-42102761D01*
X81904190Y-42055142D01*
X81856571Y-41959904D01*
X81856571Y-41864666D01*
X81904190Y-41769428D01*
X81951809Y-41721809D01*
X82047047Y-41674190D01*
X82237523Y-41626571D01*
X82332761Y-41578952D01*
X82380380Y-41531333D01*
X82428000Y-41436095D01*
X82428000Y-41340857D01*
X82380380Y-41245619D01*
X82332761Y-41198000D01*
X82237523Y-41150380D01*
X81999428Y-41150380D01*
X81856571Y-41198000D01*
X81523238Y-41150380D02*
X81285142Y-42150380D01*
X81094666Y-41436095D01*
X80904190Y-42150380D01*
X80666095Y-41150380D01*
X80237523Y-42150380D02*
X80047047Y-42150380D01*
X79951809Y-42102761D01*
X79904190Y-42055142D01*
X79808952Y-41912285D01*
X79761333Y-41721809D01*
X79761333Y-41340857D01*
X79808952Y-41245619D01*
X79856571Y-41198000D01*
X79951809Y-41150380D01*
X80142285Y-41150380D01*
X80237523Y-41198000D01*
X80285142Y-41245619D01*
X80332761Y-41340857D01*
X80332761Y-41578952D01*
X80285142Y-41674190D01*
X80237523Y-41721809D01*
X80142285Y-41769428D01*
X79951809Y-41769428D01*
X79856571Y-41721809D01*
X79808952Y-41674190D01*
X79761333Y-41578952D01*
X79570857Y-42245619D02*
X78808952Y-42245619D01*
X78570857Y-42150380D02*
X78570857Y-41483714D01*
X78570857Y-41674190D02*
X78523238Y-41578952D01*
X78475619Y-41531333D01*
X78380380Y-41483714D01*
X78285142Y-41483714D01*
X77428000Y-42150380D02*
X77999428Y-42150380D01*
X77713714Y-42150380D02*
X77713714Y-41150380D01*
X77808952Y-41293238D01*
X77904190Y-41388476D01*
X77999428Y-41436095D01*
%TO.C,SW20_r1*%
X48020118Y-99587385D02*
X47920210Y-99700053D01*
X47714013Y-99819101D01*
X47607725Y-99825481D01*
X47542676Y-99808051D01*
X47453818Y-99749382D01*
X47406199Y-99666903D01*
X47399819Y-99560615D01*
X47417249Y-99495566D01*
X47475918Y-99406708D01*
X47617066Y-99270230D01*
X47675735Y-99181372D01*
X47693164Y-99116323D01*
X47686785Y-99010035D01*
X47639166Y-98927556D01*
X47550307Y-98868887D01*
X47485258Y-98851458D01*
X47378970Y-98857837D01*
X47172774Y-98976885D01*
X47072865Y-99089553D01*
X46760381Y-99214980D02*
X47054184Y-100200053D01*
X46532084Y-99676702D01*
X46724270Y-100390529D01*
X46018073Y-99643552D01*
X45777017Y-99892697D02*
X45711968Y-99875267D01*
X45605680Y-99881647D01*
X45399484Y-100000694D01*
X45340815Y-100089553D01*
X45323385Y-100154602D01*
X45329765Y-100260890D01*
X45377384Y-100343368D01*
X45490051Y-100443277D01*
X46270637Y-100652434D01*
X45734526Y-100961958D01*
X44698415Y-100405456D02*
X44615937Y-100453075D01*
X44557268Y-100541934D01*
X44539838Y-100606983D01*
X44546218Y-100713271D01*
X44600217Y-100902038D01*
X44719264Y-101108234D01*
X44855742Y-101249382D01*
X44944600Y-101308051D01*
X45009649Y-101325481D01*
X45115937Y-101319101D01*
X45198415Y-101271482D01*
X45257085Y-101182623D01*
X45274514Y-101117575D01*
X45268135Y-101011286D01*
X45214136Y-100822520D01*
X45095088Y-100616323D01*
X44958611Y-100475176D01*
X44869752Y-100416506D01*
X44804704Y-100399077D01*
X44698415Y-100405456D01*
X44792402Y-101615865D02*
X44132573Y-101996818D01*
X43878758Y-102033387D02*
X43545424Y-101456036D01*
X43640662Y-101620994D02*
X43551804Y-101562324D01*
X43486755Y-101544895D01*
X43380467Y-101551274D01*
X43297989Y-101598893D01*
X42889014Y-102604815D02*
X43383886Y-102319101D01*
X43136450Y-102461958D02*
X42636450Y-101595933D01*
X42790357Y-101672031D01*
X42920455Y-101706891D01*
X43026743Y-101700511D01*
%TO.C,SW21_r1*%
X65856495Y-94073066D02*
X65730830Y-94156036D01*
X65500848Y-94217660D01*
X65396530Y-94196313D01*
X65338209Y-94162641D01*
X65267563Y-94082973D01*
X65242914Y-93990980D01*
X65264261Y-93886662D01*
X65297932Y-93828341D01*
X65377601Y-93757695D01*
X65549262Y-93662400D01*
X65628930Y-93591754D01*
X65662602Y-93533433D01*
X65683949Y-93429115D01*
X65659299Y-93337122D01*
X65588653Y-93257454D01*
X65530332Y-93223782D01*
X65426015Y-93202435D01*
X65196032Y-93264059D01*
X65070368Y-93347029D01*
X64736068Y-93387306D02*
X64764904Y-94414855D01*
X64396048Y-93774207D01*
X64396933Y-94513453D01*
X63908131Y-93609151D01*
X63610805Y-93787417D02*
X63552484Y-93753745D01*
X63448167Y-93732398D01*
X63218184Y-93794022D01*
X63138516Y-93864667D01*
X63104844Y-93922989D01*
X63083497Y-94027306D01*
X63108147Y-94119299D01*
X63191117Y-94244964D01*
X63890971Y-94649025D01*
X63293017Y-94809246D01*
X62373088Y-95055741D02*
X62925046Y-94907844D01*
X62649067Y-94981792D02*
X62390248Y-94015866D01*
X62519215Y-94129206D01*
X62635857Y-94196550D01*
X62740175Y-94217897D01*
X62213752Y-95197032D02*
X61477808Y-95394228D01*
X61223176Y-95363859D02*
X61050630Y-94719908D01*
X61099929Y-94903894D02*
X61029283Y-94824226D01*
X60970962Y-94790554D01*
X60866644Y-94769207D01*
X60774651Y-94793856D01*
X60119261Y-95659652D02*
X60671219Y-95511755D01*
X60395240Y-95585703D02*
X60136421Y-94619778D01*
X60265388Y-94733118D01*
X60382030Y-94800461D01*
X60486348Y-94821808D01*
%TO.C,RSW2*%
X43743380Y-83256380D02*
X44076714Y-82780190D01*
X44314809Y-83256380D02*
X44314809Y-82256380D01*
X43933857Y-82256380D01*
X43838619Y-82304000D01*
X43791000Y-82351619D01*
X43743380Y-82446857D01*
X43743380Y-82589714D01*
X43791000Y-82684952D01*
X43838619Y-82732571D01*
X43933857Y-82780190D01*
X44314809Y-82780190D01*
X43314809Y-82732571D02*
X42981476Y-82732571D01*
X42838619Y-83256380D02*
X43314809Y-83256380D01*
X43314809Y-82256380D01*
X42838619Y-82256380D01*
X42457666Y-83208761D02*
X42314809Y-83256380D01*
X42076714Y-83256380D01*
X41981476Y-83208761D01*
X41933857Y-83161142D01*
X41886238Y-83065904D01*
X41886238Y-82970666D01*
X41933857Y-82875428D01*
X41981476Y-82827809D01*
X42076714Y-82780190D01*
X42267190Y-82732571D01*
X42362428Y-82684952D01*
X42410047Y-82637333D01*
X42457666Y-82542095D01*
X42457666Y-82446857D01*
X42410047Y-82351619D01*
X42362428Y-82304000D01*
X42267190Y-82256380D01*
X42029095Y-82256380D01*
X41886238Y-82304000D01*
X41457666Y-82732571D02*
X41124333Y-82732571D01*
X40981476Y-83256380D02*
X41457666Y-83256380D01*
X41457666Y-82256380D01*
X40981476Y-82256380D01*
X40695761Y-82256380D02*
X40124333Y-82256380D01*
X40410047Y-83256380D02*
X40410047Y-82256380D01*
%TO.C,RSW1*%
X220019380Y-83510380D02*
X220352714Y-83034190D01*
X220590809Y-83510380D02*
X220590809Y-82510380D01*
X220209857Y-82510380D01*
X220114619Y-82558000D01*
X220067000Y-82605619D01*
X220019380Y-82700857D01*
X220019380Y-82843714D01*
X220067000Y-82938952D01*
X220114619Y-82986571D01*
X220209857Y-83034190D01*
X220590809Y-83034190D01*
X219590809Y-82986571D02*
X219257476Y-82986571D01*
X219114619Y-83510380D02*
X219590809Y-83510380D01*
X219590809Y-82510380D01*
X219114619Y-82510380D01*
X218733666Y-83462761D02*
X218590809Y-83510380D01*
X218352714Y-83510380D01*
X218257476Y-83462761D01*
X218209857Y-83415142D01*
X218162238Y-83319904D01*
X218162238Y-83224666D01*
X218209857Y-83129428D01*
X218257476Y-83081809D01*
X218352714Y-83034190D01*
X218543190Y-82986571D01*
X218638428Y-82938952D01*
X218686047Y-82891333D01*
X218733666Y-82796095D01*
X218733666Y-82700857D01*
X218686047Y-82605619D01*
X218638428Y-82558000D01*
X218543190Y-82510380D01*
X218305095Y-82510380D01*
X218162238Y-82558000D01*
X217733666Y-82986571D02*
X217400333Y-82986571D01*
X217257476Y-83510380D02*
X217733666Y-83510380D01*
X217733666Y-82510380D01*
X217257476Y-82510380D01*
X216971761Y-82510380D02*
X216400333Y-82510380D01*
X216686047Y-83510380D02*
X216686047Y-82510380D01*
D13*
%TO.C,REF\u002A\u002A*%
X75287214Y-50814500D02*
X76287214Y-50814500D01*
X75334833Y-50814500D02*
X75287214Y-50909738D01*
X75287214Y-51100214D01*
X75334833Y-51195452D01*
X75382452Y-51243071D01*
X75477690Y-51290690D01*
X75763404Y-51290690D01*
X75858642Y-51243071D01*
X75906261Y-51195452D01*
X75953880Y-51100214D01*
X75953880Y-50909738D01*
X75906261Y-50814500D01*
X75287214Y-52147833D02*
X75953880Y-52147833D01*
X75287214Y-51719261D02*
X75811023Y-51719261D01*
X75906261Y-51766880D01*
X75953880Y-51862119D01*
X75953880Y-52004976D01*
X75906261Y-52100214D01*
X75858642Y-52147833D01*
X75906261Y-53052595D02*
X75953880Y-52957357D01*
X75953880Y-52766880D01*
X75906261Y-52671642D01*
X75858642Y-52624023D01*
X75763404Y-52576404D01*
X75477690Y-52576404D01*
X75382452Y-52624023D01*
X75334833Y-52671642D01*
X75287214Y-52766880D01*
X75287214Y-52957357D01*
X75334833Y-53052595D01*
X75953880Y-53481166D02*
X74953880Y-53481166D01*
X75572928Y-53576404D02*
X75953880Y-53862119D01*
X75287214Y-53862119D02*
X75668166Y-53481166D01*
X75223714Y-36860500D02*
X75223714Y-37241452D01*
X74890380Y-37003357D02*
X75747523Y-37003357D01*
X75842761Y-37050976D01*
X75890380Y-37146214D01*
X75890380Y-37241452D01*
X75842761Y-37955738D02*
X75890380Y-37860500D01*
X75890380Y-37670023D01*
X75842761Y-37574785D01*
X75747523Y-37527166D01*
X75366571Y-37527166D01*
X75271333Y-37574785D01*
X75223714Y-37670023D01*
X75223714Y-37860500D01*
X75271333Y-37955738D01*
X75366571Y-38003357D01*
X75461809Y-38003357D01*
X75557047Y-37527166D01*
X75223714Y-38431928D02*
X75890380Y-38431928D01*
X75318952Y-38431928D02*
X75271333Y-38479547D01*
X75223714Y-38574785D01*
X75223714Y-38717642D01*
X75271333Y-38812880D01*
X75366571Y-38860500D01*
X75890380Y-38860500D01*
X75223714Y-39193833D02*
X75223714Y-39574785D01*
X74890380Y-39336690D02*
X75747523Y-39336690D01*
X75842761Y-39384309D01*
X75890380Y-39479547D01*
X75890380Y-39574785D01*
X75890380Y-39908119D02*
X75223714Y-39908119D01*
X74890380Y-39908119D02*
X74938000Y-39860500D01*
X74985619Y-39908119D01*
X74938000Y-39955738D01*
X74890380Y-39908119D01*
X74985619Y-39908119D01*
X75223714Y-40384309D02*
X75890380Y-40384309D01*
X75318952Y-40384309D02*
X75271333Y-40431928D01*
X75223714Y-40527166D01*
X75223714Y-40670023D01*
X75271333Y-40765261D01*
X75366571Y-40812880D01*
X75890380Y-40812880D01*
X75223714Y-41717642D02*
X76033238Y-41717642D01*
X76128476Y-41670023D01*
X76176095Y-41622404D01*
X76223714Y-41527166D01*
X76223714Y-41384309D01*
X76176095Y-41289071D01*
X75842761Y-41717642D02*
X75890380Y-41622404D01*
X75890380Y-41431928D01*
X75842761Y-41336690D01*
X75795142Y-41289071D01*
X75699904Y-41241452D01*
X75414190Y-41241452D01*
X75318952Y-41289071D01*
X75271333Y-41336690D01*
X75223714Y-41431928D01*
X75223714Y-41622404D01*
X75271333Y-41717642D01*
X184887714Y-36860500D02*
X184887714Y-37241452D01*
X184554380Y-37003357D02*
X185411523Y-37003357D01*
X185506761Y-37050976D01*
X185554380Y-37146214D01*
X185554380Y-37241452D01*
X185506761Y-37955738D02*
X185554380Y-37860500D01*
X185554380Y-37670023D01*
X185506761Y-37574785D01*
X185411523Y-37527166D01*
X185030571Y-37527166D01*
X184935333Y-37574785D01*
X184887714Y-37670023D01*
X184887714Y-37860500D01*
X184935333Y-37955738D01*
X185030571Y-38003357D01*
X185125809Y-38003357D01*
X185221047Y-37527166D01*
X184887714Y-38431928D02*
X185554380Y-38431928D01*
X184982952Y-38431928D02*
X184935333Y-38479547D01*
X184887714Y-38574785D01*
X184887714Y-38717642D01*
X184935333Y-38812880D01*
X185030571Y-38860500D01*
X185554380Y-38860500D01*
X184887714Y-39193833D02*
X184887714Y-39574785D01*
X184554380Y-39336690D02*
X185411523Y-39336690D01*
X185506761Y-39384309D01*
X185554380Y-39479547D01*
X185554380Y-39574785D01*
X185554380Y-39908119D02*
X184887714Y-39908119D01*
X184554380Y-39908119D02*
X184602000Y-39860500D01*
X184649619Y-39908119D01*
X184602000Y-39955738D01*
X184554380Y-39908119D01*
X184649619Y-39908119D01*
X184887714Y-40384309D02*
X185554380Y-40384309D01*
X184982952Y-40384309D02*
X184935333Y-40431928D01*
X184887714Y-40527166D01*
X184887714Y-40670023D01*
X184935333Y-40765261D01*
X185030571Y-40812880D01*
X185554380Y-40812880D01*
X184887714Y-41717642D02*
X185697238Y-41717642D01*
X185792476Y-41670023D01*
X185840095Y-41622404D01*
X185887714Y-41527166D01*
X185887714Y-41384309D01*
X185840095Y-41289071D01*
X185506761Y-41717642D02*
X185554380Y-41622404D01*
X185554380Y-41431928D01*
X185506761Y-41336690D01*
X185459142Y-41289071D01*
X185363904Y-41241452D01*
X185078190Y-41241452D01*
X184982952Y-41289071D01*
X184935333Y-41336690D01*
X184887714Y-41431928D01*
X184887714Y-41622404D01*
X184935333Y-41717642D01*
X184951214Y-50814500D02*
X185951214Y-50814500D01*
X184998833Y-50814500D02*
X184951214Y-50909738D01*
X184951214Y-51100214D01*
X184998833Y-51195452D01*
X185046452Y-51243071D01*
X185141690Y-51290690D01*
X185427404Y-51290690D01*
X185522642Y-51243071D01*
X185570261Y-51195452D01*
X185617880Y-51100214D01*
X185617880Y-50909738D01*
X185570261Y-50814500D01*
X184951214Y-52147833D02*
X185617880Y-52147833D01*
X184951214Y-51719261D02*
X185475023Y-51719261D01*
X185570261Y-51766880D01*
X185617880Y-51862119D01*
X185617880Y-52004976D01*
X185570261Y-52100214D01*
X185522642Y-52147833D01*
X185570261Y-53052595D02*
X185617880Y-52957357D01*
X185617880Y-52766880D01*
X185570261Y-52671642D01*
X185522642Y-52624023D01*
X185427404Y-52576404D01*
X185141690Y-52576404D01*
X185046452Y-52624023D01*
X184998833Y-52671642D01*
X184951214Y-52766880D01*
X184951214Y-52957357D01*
X184998833Y-53052595D01*
X185617880Y-53481166D02*
X184617880Y-53481166D01*
X185236928Y-53576404D02*
X185617880Y-53862119D01*
X184951214Y-53862119D02*
X185332166Y-53481166D01*
D11*
%TO.C,BatGND4*%
X36377638Y-52005895D02*
X36377638Y-52199419D01*
X36571161Y-52122009D02*
X36377638Y-52199419D01*
X36184114Y-52122009D01*
X36493752Y-52354238D02*
X36377638Y-52199419D01*
X36261523Y-52354238D01*
X35758361Y-52005895D02*
X35758361Y-52199419D01*
X35951885Y-52122009D02*
X35758361Y-52199419D01*
X35564838Y-52122009D01*
X35874476Y-52354238D02*
X35758361Y-52199419D01*
X35642247Y-52354238D01*
%TO.C,BatGND1*%
X224591638Y-52005895D02*
X224591638Y-52199419D01*
X224785161Y-52122009D02*
X224591638Y-52199419D01*
X224398114Y-52122009D01*
X224707752Y-52354238D02*
X224591638Y-52199419D01*
X224475523Y-52354238D01*
X223972361Y-52005895D02*
X223972361Y-52199419D01*
X224165885Y-52122009D02*
X223972361Y-52199419D01*
X223778838Y-52122009D01*
X224088476Y-52354238D02*
X223972361Y-52199419D01*
X223856247Y-52354238D01*
%TO.C,Bat+r1*%
X236275638Y-52005895D02*
X236275638Y-52199419D01*
X236469161Y-52122009D02*
X236275638Y-52199419D01*
X236082114Y-52122009D01*
X236391752Y-52354238D02*
X236275638Y-52199419D01*
X236159523Y-52354238D01*
X235656361Y-52005895D02*
X235656361Y-52199419D01*
X235849885Y-52122009D02*
X235656361Y-52199419D01*
X235462838Y-52122009D01*
X235772476Y-52354238D02*
X235656361Y-52199419D01*
X235540247Y-52354238D01*
%TO.C,Bat+1*%
X24947638Y-52005895D02*
X24947638Y-52199419D01*
X25141161Y-52122009D02*
X24947638Y-52199419D01*
X24754114Y-52122009D01*
X25063752Y-52354238D02*
X24947638Y-52199419D01*
X24831523Y-52354238D01*
X24328361Y-52005895D02*
X24328361Y-52199419D01*
X24521885Y-52122009D02*
X24328361Y-52199419D01*
X24134838Y-52122009D01*
X24444476Y-52354238D02*
X24328361Y-52199419D01*
X24212247Y-52354238D01*
%TO.C,REF\u002A\u002A*%
G36*
X76479184Y-60798669D02*
G01*
X76491413Y-60808717D01*
X76516895Y-60832337D01*
X76553042Y-60867050D01*
X76597266Y-60910375D01*
X76646979Y-60959830D01*
X76808014Y-61121174D01*
X76774132Y-61158989D01*
X76770955Y-61162481D01*
X76749087Y-61185690D01*
X76714741Y-61221436D01*
X76670925Y-61266616D01*
X76620642Y-61318129D01*
X76566900Y-61372872D01*
X76393550Y-61548941D01*
X75773536Y-61548941D01*
X75801837Y-61515306D01*
X75804130Y-61512615D01*
X75824798Y-61489386D01*
X75857556Y-61453546D01*
X75900416Y-61407201D01*
X75951388Y-61352458D01*
X76008484Y-61291423D01*
X76069714Y-61226204D01*
X76133089Y-61158906D01*
X76196622Y-61091636D01*
X76258321Y-61026501D01*
X76316200Y-60965607D01*
X76368267Y-60911061D01*
X76412536Y-60864969D01*
X76447015Y-60829438D01*
X76469718Y-60806575D01*
X76478653Y-60798486D01*
X76479184Y-60798669D01*
G37*
D14*
X76479184Y-60798669D02*
X76491413Y-60808717D01*
X76516895Y-60832337D01*
X76553042Y-60867050D01*
X76597266Y-60910375D01*
X76646979Y-60959830D01*
X76808014Y-61121174D01*
X76774132Y-61158989D01*
X76770955Y-61162481D01*
X76749087Y-61185690D01*
X76714741Y-61221436D01*
X76670925Y-61266616D01*
X76620642Y-61318129D01*
X76566900Y-61372872D01*
X76393550Y-61548941D01*
X75773536Y-61548941D01*
X75801837Y-61515306D01*
X75804130Y-61512615D01*
X75824798Y-61489386D01*
X75857556Y-61453546D01*
X75900416Y-61407201D01*
X75951388Y-61352458D01*
X76008484Y-61291423D01*
X76069714Y-61226204D01*
X76133089Y-61158906D01*
X76196622Y-61091636D01*
X76258321Y-61026501D01*
X76316200Y-60965607D01*
X76368267Y-60911061D01*
X76412536Y-60864969D01*
X76447015Y-60829438D01*
X76469718Y-60806575D01*
X76478653Y-60798486D01*
X76479184Y-60798669D01*
G36*
X75569717Y-60712364D02*
G01*
X75567104Y-60740759D01*
X75558235Y-60787209D01*
X75520682Y-60914369D01*
X75465516Y-61040232D01*
X75395824Y-61158414D01*
X75314693Y-61262534D01*
X75306299Y-61271700D01*
X75197987Y-61372026D01*
X75075567Y-61456023D01*
X74942394Y-61522002D01*
X74801826Y-61568277D01*
X74657218Y-61593158D01*
X74556972Y-61597641D01*
X74408551Y-61586242D01*
X74265132Y-61553989D01*
X74128896Y-61501966D01*
X74002021Y-61431252D01*
X73886688Y-61342930D01*
X73785075Y-61238081D01*
X73699363Y-61117788D01*
X73642108Y-61010869D01*
X73588963Y-60871633D01*
X73557607Y-60727069D01*
X73551103Y-60630705D01*
X74046342Y-60630705D01*
X74046624Y-60635995D01*
X74050942Y-60691298D01*
X74058299Y-60733590D01*
X74070944Y-60772198D01*
X74091125Y-60816444D01*
X74112613Y-60854771D01*
X74154098Y-60913565D01*
X74202155Y-60969021D01*
X74251478Y-61015215D01*
X74296764Y-61046219D01*
X74312931Y-61053995D01*
X74353836Y-61071355D01*
X74396833Y-61087441D01*
X74469660Y-61106729D01*
X74573361Y-61115250D01*
X74674902Y-61102456D01*
X74771688Y-61069324D01*
X74861120Y-61016831D01*
X74940601Y-60945954D01*
X75007535Y-60857671D01*
X75036189Y-60803526D01*
X75066621Y-60709507D01*
X75077193Y-60611958D01*
X75068887Y-60514010D01*
X75042685Y-60418797D01*
X74999572Y-60329450D01*
X74940529Y-60249104D01*
X74866539Y-60180890D01*
X74778587Y-60127941D01*
X74764584Y-60121655D01*
X74666238Y-60091030D01*
X74564886Y-60080848D01*
X74463982Y-60090168D01*
X74366983Y-60118046D01*
X74277347Y-60163542D01*
X74198530Y-60225712D01*
X74133988Y-60303616D01*
X74116218Y-60332145D01*
X74072566Y-60425568D01*
X74049710Y-60523460D01*
X74046342Y-60630705D01*
X73551103Y-60630705D01*
X73547316Y-60574591D01*
X73550877Y-60484921D01*
X73573558Y-60334642D01*
X73616310Y-60192673D01*
X73678120Y-60060688D01*
X73757978Y-59940363D01*
X73854872Y-59833374D01*
X73967792Y-59741394D01*
X74095725Y-59666101D01*
X74165576Y-59633462D01*
X74240714Y-59604245D01*
X74312366Y-59584753D01*
X74388849Y-59572816D01*
X74478484Y-59566264D01*
X74496296Y-59565596D01*
X74635497Y-59572034D01*
X74765880Y-59599710D01*
X74888096Y-59648814D01*
X75002793Y-59719536D01*
X75026927Y-59736738D01*
X75051773Y-59753081D01*
X75064204Y-59759395D01*
X75065112Y-59755365D01*
X75066561Y-59731558D01*
X75067888Y-59688435D01*
X75069057Y-59628360D01*
X75070033Y-59553698D01*
X75070783Y-59466812D01*
X75071272Y-59370067D01*
X75071464Y-59265827D01*
X75071612Y-58772259D01*
X75579316Y-59282285D01*
X75579229Y-59973999D01*
X75579226Y-59985735D01*
X75578965Y-60136209D01*
X75578301Y-60273481D01*
X75577257Y-60396137D01*
X75575854Y-60502766D01*
X75574115Y-60591955D01*
X75573531Y-60611958D01*
X75572062Y-60662292D01*
X75569717Y-60712364D01*
G37*
X75569717Y-60712364D02*
X75567104Y-60740759D01*
X75558235Y-60787209D01*
X75520682Y-60914369D01*
X75465516Y-61040232D01*
X75395824Y-61158414D01*
X75314693Y-61262534D01*
X75306299Y-61271700D01*
X75197987Y-61372026D01*
X75075567Y-61456023D01*
X74942394Y-61522002D01*
X74801826Y-61568277D01*
X74657218Y-61593158D01*
X74556972Y-61597641D01*
X74408551Y-61586242D01*
X74265132Y-61553989D01*
X74128896Y-61501966D01*
X74002021Y-61431252D01*
X73886688Y-61342930D01*
X73785075Y-61238081D01*
X73699363Y-61117788D01*
X73642108Y-61010869D01*
X73588963Y-60871633D01*
X73557607Y-60727069D01*
X73551103Y-60630705D01*
X74046342Y-60630705D01*
X74046624Y-60635995D01*
X74050942Y-60691298D01*
X74058299Y-60733590D01*
X74070944Y-60772198D01*
X74091125Y-60816444D01*
X74112613Y-60854771D01*
X74154098Y-60913565D01*
X74202155Y-60969021D01*
X74251478Y-61015215D01*
X74296764Y-61046219D01*
X74312931Y-61053995D01*
X74353836Y-61071355D01*
X74396833Y-61087441D01*
X74469660Y-61106729D01*
X74573361Y-61115250D01*
X74674902Y-61102456D01*
X74771688Y-61069324D01*
X74861120Y-61016831D01*
X74940601Y-60945954D01*
X75007535Y-60857671D01*
X75036189Y-60803526D01*
X75066621Y-60709507D01*
X75077193Y-60611958D01*
X75068887Y-60514010D01*
X75042685Y-60418797D01*
X74999572Y-60329450D01*
X74940529Y-60249104D01*
X74866539Y-60180890D01*
X74778587Y-60127941D01*
X74764584Y-60121655D01*
X74666238Y-60091030D01*
X74564886Y-60080848D01*
X74463982Y-60090168D01*
X74366983Y-60118046D01*
X74277347Y-60163542D01*
X74198530Y-60225712D01*
X74133988Y-60303616D01*
X74116218Y-60332145D01*
X74072566Y-60425568D01*
X74049710Y-60523460D01*
X74046342Y-60630705D01*
X73551103Y-60630705D01*
X73547316Y-60574591D01*
X73550877Y-60484921D01*
X73573558Y-60334642D01*
X73616310Y-60192673D01*
X73678120Y-60060688D01*
X73757978Y-59940363D01*
X73854872Y-59833374D01*
X73967792Y-59741394D01*
X74095725Y-59666101D01*
X74165576Y-59633462D01*
X74240714Y-59604245D01*
X74312366Y-59584753D01*
X74388849Y-59572816D01*
X74478484Y-59566264D01*
X74496296Y-59565596D01*
X74635497Y-59572034D01*
X74765880Y-59599710D01*
X74888096Y-59648814D01*
X75002793Y-59719536D01*
X75026927Y-59736738D01*
X75051773Y-59753081D01*
X75064204Y-59759395D01*
X75065112Y-59755365D01*
X75066561Y-59731558D01*
X75067888Y-59688435D01*
X75069057Y-59628360D01*
X75070033Y-59553698D01*
X75070783Y-59466812D01*
X75071272Y-59370067D01*
X75071464Y-59265827D01*
X75071612Y-58772259D01*
X75579316Y-59282285D01*
X75579229Y-59973999D01*
X75579226Y-59985735D01*
X75578965Y-60136209D01*
X75578301Y-60273481D01*
X75577257Y-60396137D01*
X75575854Y-60502766D01*
X75574115Y-60591955D01*
X75573531Y-60611958D01*
X75572062Y-60662292D01*
X75569717Y-60712364D01*
G36*
X77772952Y-61508356D02*
G01*
X77682108Y-61416080D01*
X77668327Y-61402084D01*
X77636466Y-61369731D01*
X77590519Y-61323077D01*
X77531703Y-61263359D01*
X77461236Y-61191814D01*
X77380337Y-61109677D01*
X77290222Y-61018184D01*
X77192110Y-60918573D01*
X77087218Y-60812080D01*
X76976764Y-60699940D01*
X76861965Y-60583391D01*
X76744040Y-60463668D01*
X75896816Y-59603531D01*
X76185184Y-59600438D01*
X76473552Y-59597344D01*
X77276498Y-60400044D01*
X77276498Y-58766486D01*
X77772952Y-58766486D01*
X77772952Y-61508356D01*
G37*
X77772952Y-61508356D02*
X77682108Y-61416080D01*
X77668327Y-61402084D01*
X77636466Y-61369731D01*
X77590519Y-61323077D01*
X77531703Y-61263359D01*
X77461236Y-61191814D01*
X77380337Y-61109677D01*
X77290222Y-61018184D01*
X77192110Y-60918573D01*
X77087218Y-60812080D01*
X76976764Y-60699940D01*
X76861965Y-60583391D01*
X76744040Y-60463668D01*
X75896816Y-59603531D01*
X76185184Y-59600438D01*
X76473552Y-59597344D01*
X77276498Y-60400044D01*
X77276498Y-58766486D01*
X77772952Y-58766486D01*
X77772952Y-61508356D01*
D15*
X74563615Y-57017864D02*
G75*
G03*
X75692000Y-57077000I1128385J10735864D01*
G01*
X75692000Y-35487000D02*
G75*
G03*
X74563615Y-35546136I0J-10795000D01*
G01*
X76820385Y-35546136D02*
G75*
G03*
X75692000Y-35487000I-1128385J-10735864D01*
G01*
X75692000Y-57077000D02*
G75*
G03*
X76820385Y-57017864I0J10795000D01*
G01*
X56405865Y-39273956D02*
G75*
G03*
X55372000Y-43424500I19286135J-7008044D01*
G01*
X55371999Y-49139500D02*
G75*
G03*
X56405865Y-53290046I20320001J2857500D01*
G01*
X68683955Y-65568135D02*
G75*
G03*
X72834500Y-66602000I7008045J19286135D01*
G01*
X78549500Y-66602000D02*
G75*
G03*
X82700045Y-65568135I-2857500J20320000D01*
G01*
X94978134Y-53290048D02*
G75*
G03*
X96012000Y-49139500I-19286134J7008048D01*
G01*
X96012000Y-43424500D02*
G75*
G03*
X94978134Y-39273952I-20320000J-2857500D01*
G01*
X82700049Y-26995867D02*
G75*
G03*
X78549500Y-25962000I-7008049J-19286133D01*
G01*
X72834500Y-25961999D02*
G75*
G03*
X68683954Y-26995865I2857500J-20320001D01*
G01*
G36*
X187436952Y-61508356D02*
G01*
X187346108Y-61416080D01*
X187332327Y-61402084D01*
X187300466Y-61369731D01*
X187254519Y-61323077D01*
X187195703Y-61263359D01*
X187125236Y-61191814D01*
X187044337Y-61109677D01*
X186954222Y-61018184D01*
X186856110Y-60918573D01*
X186751218Y-60812080D01*
X186640764Y-60699940D01*
X186525965Y-60583391D01*
X186408040Y-60463668D01*
X185560816Y-59603531D01*
X185849184Y-59600438D01*
X186137552Y-59597344D01*
X186940498Y-60400044D01*
X186940498Y-58766486D01*
X187436952Y-58766486D01*
X187436952Y-61508356D01*
G37*
D14*
X187436952Y-61508356D02*
X187346108Y-61416080D01*
X187332327Y-61402084D01*
X187300466Y-61369731D01*
X187254519Y-61323077D01*
X187195703Y-61263359D01*
X187125236Y-61191814D01*
X187044337Y-61109677D01*
X186954222Y-61018184D01*
X186856110Y-60918573D01*
X186751218Y-60812080D01*
X186640764Y-60699940D01*
X186525965Y-60583391D01*
X186408040Y-60463668D01*
X185560816Y-59603531D01*
X185849184Y-59600438D01*
X186137552Y-59597344D01*
X186940498Y-60400044D01*
X186940498Y-58766486D01*
X187436952Y-58766486D01*
X187436952Y-61508356D01*
G36*
X185233717Y-60712364D02*
G01*
X185231104Y-60740759D01*
X185222235Y-60787209D01*
X185184682Y-60914369D01*
X185129516Y-61040232D01*
X185059824Y-61158414D01*
X184978693Y-61262534D01*
X184970299Y-61271700D01*
X184861987Y-61372026D01*
X184739567Y-61456023D01*
X184606394Y-61522002D01*
X184465826Y-61568277D01*
X184321218Y-61593158D01*
X184220972Y-61597641D01*
X184072551Y-61586242D01*
X183929132Y-61553989D01*
X183792896Y-61501966D01*
X183666021Y-61431252D01*
X183550688Y-61342930D01*
X183449075Y-61238081D01*
X183363363Y-61117788D01*
X183306108Y-61010869D01*
X183252963Y-60871633D01*
X183221607Y-60727069D01*
X183215103Y-60630705D01*
X183710342Y-60630705D01*
X183710624Y-60635995D01*
X183714942Y-60691298D01*
X183722299Y-60733590D01*
X183734944Y-60772198D01*
X183755125Y-60816444D01*
X183776613Y-60854771D01*
X183818098Y-60913565D01*
X183866155Y-60969021D01*
X183915478Y-61015215D01*
X183960764Y-61046219D01*
X183976931Y-61053995D01*
X184017836Y-61071355D01*
X184060833Y-61087441D01*
X184133660Y-61106729D01*
X184237361Y-61115250D01*
X184338902Y-61102456D01*
X184435688Y-61069324D01*
X184525120Y-61016831D01*
X184604601Y-60945954D01*
X184671535Y-60857671D01*
X184700189Y-60803526D01*
X184730621Y-60709507D01*
X184741193Y-60611958D01*
X184732887Y-60514010D01*
X184706685Y-60418797D01*
X184663572Y-60329450D01*
X184604529Y-60249104D01*
X184530539Y-60180890D01*
X184442587Y-60127941D01*
X184428584Y-60121655D01*
X184330238Y-60091030D01*
X184228886Y-60080848D01*
X184127982Y-60090168D01*
X184030983Y-60118046D01*
X183941347Y-60163542D01*
X183862530Y-60225712D01*
X183797988Y-60303616D01*
X183780218Y-60332145D01*
X183736566Y-60425568D01*
X183713710Y-60523460D01*
X183710342Y-60630705D01*
X183215103Y-60630705D01*
X183211316Y-60574591D01*
X183214877Y-60484921D01*
X183237558Y-60334642D01*
X183280310Y-60192673D01*
X183342120Y-60060688D01*
X183421978Y-59940363D01*
X183518872Y-59833374D01*
X183631792Y-59741394D01*
X183759725Y-59666101D01*
X183829576Y-59633462D01*
X183904714Y-59604245D01*
X183976366Y-59584753D01*
X184052849Y-59572816D01*
X184142484Y-59566264D01*
X184160296Y-59565596D01*
X184299497Y-59572034D01*
X184429880Y-59599710D01*
X184552096Y-59648814D01*
X184666793Y-59719536D01*
X184690927Y-59736738D01*
X184715773Y-59753081D01*
X184728204Y-59759395D01*
X184729112Y-59755365D01*
X184730561Y-59731558D01*
X184731888Y-59688435D01*
X184733057Y-59628360D01*
X184734033Y-59553698D01*
X184734783Y-59466812D01*
X184735272Y-59370067D01*
X184735464Y-59265827D01*
X184735612Y-58772259D01*
X185243316Y-59282285D01*
X185243229Y-59973999D01*
X185243226Y-59985735D01*
X185242965Y-60136209D01*
X185242301Y-60273481D01*
X185241257Y-60396137D01*
X185239854Y-60502766D01*
X185238115Y-60591955D01*
X185237531Y-60611958D01*
X185236062Y-60662292D01*
X185233717Y-60712364D01*
G37*
X185233717Y-60712364D02*
X185231104Y-60740759D01*
X185222235Y-60787209D01*
X185184682Y-60914369D01*
X185129516Y-61040232D01*
X185059824Y-61158414D01*
X184978693Y-61262534D01*
X184970299Y-61271700D01*
X184861987Y-61372026D01*
X184739567Y-61456023D01*
X184606394Y-61522002D01*
X184465826Y-61568277D01*
X184321218Y-61593158D01*
X184220972Y-61597641D01*
X184072551Y-61586242D01*
X183929132Y-61553989D01*
X183792896Y-61501966D01*
X183666021Y-61431252D01*
X183550688Y-61342930D01*
X183449075Y-61238081D01*
X183363363Y-61117788D01*
X183306108Y-61010869D01*
X183252963Y-60871633D01*
X183221607Y-60727069D01*
X183215103Y-60630705D01*
X183710342Y-60630705D01*
X183710624Y-60635995D01*
X183714942Y-60691298D01*
X183722299Y-60733590D01*
X183734944Y-60772198D01*
X183755125Y-60816444D01*
X183776613Y-60854771D01*
X183818098Y-60913565D01*
X183866155Y-60969021D01*
X183915478Y-61015215D01*
X183960764Y-61046219D01*
X183976931Y-61053995D01*
X184017836Y-61071355D01*
X184060833Y-61087441D01*
X184133660Y-61106729D01*
X184237361Y-61115250D01*
X184338902Y-61102456D01*
X184435688Y-61069324D01*
X184525120Y-61016831D01*
X184604601Y-60945954D01*
X184671535Y-60857671D01*
X184700189Y-60803526D01*
X184730621Y-60709507D01*
X184741193Y-60611958D01*
X184732887Y-60514010D01*
X184706685Y-60418797D01*
X184663572Y-60329450D01*
X184604529Y-60249104D01*
X184530539Y-60180890D01*
X184442587Y-60127941D01*
X184428584Y-60121655D01*
X184330238Y-60091030D01*
X184228886Y-60080848D01*
X184127982Y-60090168D01*
X184030983Y-60118046D01*
X183941347Y-60163542D01*
X183862530Y-60225712D01*
X183797988Y-60303616D01*
X183780218Y-60332145D01*
X183736566Y-60425568D01*
X183713710Y-60523460D01*
X183710342Y-60630705D01*
X183215103Y-60630705D01*
X183211316Y-60574591D01*
X183214877Y-60484921D01*
X183237558Y-60334642D01*
X183280310Y-60192673D01*
X183342120Y-60060688D01*
X183421978Y-59940363D01*
X183518872Y-59833374D01*
X183631792Y-59741394D01*
X183759725Y-59666101D01*
X183829576Y-59633462D01*
X183904714Y-59604245D01*
X183976366Y-59584753D01*
X184052849Y-59572816D01*
X184142484Y-59566264D01*
X184160296Y-59565596D01*
X184299497Y-59572034D01*
X184429880Y-59599710D01*
X184552096Y-59648814D01*
X184666793Y-59719536D01*
X184690927Y-59736738D01*
X184715773Y-59753081D01*
X184728204Y-59759395D01*
X184729112Y-59755365D01*
X184730561Y-59731558D01*
X184731888Y-59688435D01*
X184733057Y-59628360D01*
X184734033Y-59553698D01*
X184734783Y-59466812D01*
X184735272Y-59370067D01*
X184735464Y-59265827D01*
X184735612Y-58772259D01*
X185243316Y-59282285D01*
X185243229Y-59973999D01*
X185243226Y-59985735D01*
X185242965Y-60136209D01*
X185242301Y-60273481D01*
X185241257Y-60396137D01*
X185239854Y-60502766D01*
X185238115Y-60591955D01*
X185237531Y-60611958D01*
X185236062Y-60662292D01*
X185233717Y-60712364D01*
G36*
X186143184Y-60798669D02*
G01*
X186155413Y-60808717D01*
X186180895Y-60832337D01*
X186217042Y-60867050D01*
X186261266Y-60910375D01*
X186310979Y-60959830D01*
X186472014Y-61121174D01*
X186438132Y-61158989D01*
X186434955Y-61162481D01*
X186413087Y-61185690D01*
X186378741Y-61221436D01*
X186334925Y-61266616D01*
X186284642Y-61318129D01*
X186230900Y-61372872D01*
X186057550Y-61548941D01*
X185437536Y-61548941D01*
X185465837Y-61515306D01*
X185468130Y-61512615D01*
X185488798Y-61489386D01*
X185521556Y-61453546D01*
X185564416Y-61407201D01*
X185615388Y-61352458D01*
X185672484Y-61291423D01*
X185733714Y-61226204D01*
X185797089Y-61158906D01*
X185860622Y-61091636D01*
X185922321Y-61026501D01*
X185980200Y-60965607D01*
X186032267Y-60911061D01*
X186076536Y-60864969D01*
X186111015Y-60829438D01*
X186133718Y-60806575D01*
X186142653Y-60798486D01*
X186143184Y-60798669D01*
G37*
X186143184Y-60798669D02*
X186155413Y-60808717D01*
X186180895Y-60832337D01*
X186217042Y-60867050D01*
X186261266Y-60910375D01*
X186310979Y-60959830D01*
X186472014Y-61121174D01*
X186438132Y-61158989D01*
X186434955Y-61162481D01*
X186413087Y-61185690D01*
X186378741Y-61221436D01*
X186334925Y-61266616D01*
X186284642Y-61318129D01*
X186230900Y-61372872D01*
X186057550Y-61548941D01*
X185437536Y-61548941D01*
X185465837Y-61515306D01*
X185468130Y-61512615D01*
X185488798Y-61489386D01*
X185521556Y-61453546D01*
X185564416Y-61407201D01*
X185615388Y-61352458D01*
X185672484Y-61291423D01*
X185733714Y-61226204D01*
X185797089Y-61158906D01*
X185860622Y-61091636D01*
X185922321Y-61026501D01*
X185980200Y-60965607D01*
X186032267Y-60911061D01*
X186076536Y-60864969D01*
X186111015Y-60829438D01*
X186133718Y-60806575D01*
X186142653Y-60798486D01*
X186143184Y-60798669D01*
D15*
X182498500Y-25961999D02*
G75*
G03*
X178347954Y-26995865I2857500J-20320001D01*
G01*
X192364049Y-26995867D02*
G75*
G03*
X188213500Y-25962000I-7008049J-19286133D01*
G01*
X205676000Y-43424500D02*
G75*
G03*
X204642134Y-39273952I-20320000J-2857500D01*
G01*
X204642134Y-53290048D02*
G75*
G03*
X205676000Y-49139500I-19286134J7008048D01*
G01*
X188213500Y-66602000D02*
G75*
G03*
X192364045Y-65568135I-2857500J20320000D01*
G01*
X178347955Y-65568135D02*
G75*
G03*
X182498500Y-66602000I7008045J19286135D01*
G01*
X165035999Y-49139500D02*
G75*
G03*
X166069865Y-53290046I20320001J2857500D01*
G01*
X166069865Y-39273956D02*
G75*
G03*
X165036000Y-43424500I19286135J-7008044D01*
G01*
X185356000Y-57077000D02*
G75*
G03*
X186484385Y-57017864I0J10795000D01*
G01*
X186484385Y-35546136D02*
G75*
G03*
X185356000Y-35487000I-1128385J-10735864D01*
G01*
X185356000Y-35487000D02*
G75*
G03*
X184227615Y-35546136I0J-10795000D01*
G01*
X184227615Y-57017864D02*
G75*
G03*
X185356000Y-57077000I1128385J10735864D01*
G01*
D11*
%TO.C,BatGND4*%
X35068000Y-51800000D02*
X35068000Y-49800000D01*
X37068000Y-51800000D02*
X35068000Y-51800000D01*
X37068000Y-49800000D02*
X37068000Y-51800000D01*
X35068000Y-49800000D02*
X37068000Y-49800000D01*
%TO.C,BatGND1*%
X223282000Y-51800000D02*
X223282000Y-49800000D01*
X225282000Y-51800000D02*
X223282000Y-51800000D01*
X225282000Y-49800000D02*
X225282000Y-51800000D01*
X223282000Y-49800000D02*
X225282000Y-49800000D01*
%TO.C,Bat+r1*%
X234966000Y-51800000D02*
X234966000Y-49800000D01*
X236966000Y-51800000D02*
X234966000Y-51800000D01*
X236966000Y-49800000D02*
X236966000Y-51800000D01*
X234966000Y-49800000D02*
X236966000Y-49800000D01*
%TO.C,Bat+1*%
X23638000Y-51800000D02*
X23638000Y-49800000D01*
X25638000Y-51800000D02*
X23638000Y-51800000D01*
X25638000Y-49800000D02*
X25638000Y-51800000D01*
X23638000Y-49800000D02*
X25638000Y-49800000D01*
%TD*%
M02*
